<svg id="svg" version="1.1" xmlns="http://www.w3.org/2000/svg" xmlns:xlink="http://www.w3.org/1999/xlink" width="400" height="126.15384615384615" viewBox="0, 0, 400,126.15384615384615"><g id="svgg"><path id="path0" d="M4.667 0.727 L 4.667 1.455 3.893 1.561 C 3.468 1.619,2.877 1.667,2.580 1.667 C 2.282 1.667,1.939 1.790,1.812 1.942 C 1.469 2.355,1.469 123.645,1.812 124.058 C 1.939 124.210,2.282 124.333,2.580 124.333 C 2.877 124.333,3.468 124.381,3.893 124.439 L 4.667 124.545 4.667 125.273 L 4.667 126.000 41.500 126.000 L 78.333 126.000 78.333 125.277 L 78.333 124.553 82.310 124.448 C 87.418 124.313,87.362 124.336,87.586 122.292 L 87.691 121.333 90.220 121.331 C 93.771 121.328,93.621 121.406,93.786 119.458 L 93.882 118.333 94.904 118.333 C 98.745 118.333,99.829 117.756,99.832 115.708 L 99.833 115.167 101.155 115.167 C 102.871 115.167,103.000 115.045,103.000 113.422 L 103.000 112.202 104.326 112.142 C 105.965 112.067,106.036 111.996,106.132 110.339 L 106.209 109.000 107.516 109.000 C 109.084 109.000,109.167 108.910,109.167 107.195 L 109.167 106.035 110.493 105.975 C 112.124 105.901,112.148 105.877,112.278 104.197 L 112.383 102.833 113.316 102.831 C 115.234 102.826,115.331 102.649,115.332 99.146 L 115.333 96.876 116.673 96.799 C 118.461 96.695,118.398 96.811,118.473 93.516 L 118.538 90.708 119.796 90.627 C 120.760 90.565,121.106 90.475,121.277 90.241 C 121.464 89.986,121.502 92.347,121.513 104.843 C 121.530 125.366,121.410 124.187,123.501 124.305 L 124.667 124.371 124.667 125.185 L 124.667 126.000 144.667 126.000 L 164.667 126.000 164.667 125.267 L 164.667 124.535 166.011 124.416 C 167.234 124.307,167.370 124.260,167.511 123.887 C 167.606 123.638,167.677 104.968,167.692 76.114 C 167.707 50.064,167.766 29.369,167.824 30.125 C 167.957 31.862,168.097 32.016,169.652 32.127 L 170.833 32.211 170.833 35.010 C 170.833 38.395,170.801 38.333,172.595 38.333 L 173.833 38.333 173.846 41.875 C 173.865 47.491,173.866 47.493,175.770 47.497 L 176.958 47.500 177.035 51.292 C 177.138 56.283,177.308 56.662,179.442 56.666 L 179.967 56.667 180.025 59.575 C 180.093 62.973,180.018 62.832,181.814 62.955 L 183.167 63.048 183.167 66.916 C 183.167 71.987,183.147 71.933,185.110 72.116 L 186.140 72.212 186.195 75.093 C 186.259 78.433,186.157 78.232,187.822 78.308 L 189.117 78.366 189.231 82.642 C 189.366 87.686,189.292 87.500,191.161 87.500 L 192.284 87.500 192.374 91.458 C 192.487 96.461,192.576 96.662,194.682 96.666 L 195.281 96.667 195.389 99.522 C 195.511 102.759,195.540 102.833,196.666 102.833 C 197.102 102.833,197.687 102.879,197.967 102.935 L 198.475 103.037 198.529 107.282 C 198.592 112.186,198.481 111.889,200.315 112.070 L 201.458 112.183 201.530 115.093 C 201.579 117.035,201.669 118.069,201.801 118.201 C 201.911 118.311,202.000 118.533,202.000 118.697 C 202.000 119.787,202.832 120.693,204.042 120.920 L 204.667 121.037 204.667 122.498 C 204.667 124.255,204.685 124.276,206.380 124.429 L 207.667 124.546 207.667 125.273 L 207.667 126.000 227.667 126.000 L 247.667 126.000 247.667 125.250 L 247.667 124.500 248.562 124.500 C 249.696 124.500,250.512 124.339,250.586 124.101 C 250.618 124.000,250.692 123.345,250.751 122.647 L 250.858 121.376 252.024 121.293 C 253.795 121.166,253.815 121.103,253.826 115.813 L 253.833 112.209 255.182 112.131 C 256.890 112.033,256.828 112.159,256.831 108.811 C 256.834 105.678,256.755 105.841,258.273 105.836 C 259.769 105.831,259.969 105.109,259.990 99.639 L 260.000 96.862 261.258 96.744 C 263.048 96.576,263.000 96.673,263.000 93.241 L 263.000 90.340 263.458 90.240 C 265.552 89.782,266.167 88.362,266.167 83.977 L 266.167 81.333 267.301 81.333 C 269.171 81.333,269.075 81.587,269.135 76.514 L 269.187 72.167 270.395 72.167 C 272.265 72.167,272.229 72.229,272.306 68.872 L 272.371 66.045 273.468 65.942 C 275.250 65.776,275.315 65.580,275.326 60.393 L 275.333 56.870 276.580 56.807 C 278.362 56.717,278.326 56.783,278.449 53.366 C 278.562 50.234,278.470 50.465,279.682 50.262 C 281.046 50.033,281.500 48.528,281.500 44.231 L 281.500 41.545 282.273 41.439 C 282.699 41.381,283.249 41.333,283.497 41.333 C 284.442 41.333,284.490 41.122,284.610 36.445 L 284.720 32.167 285.902 32.164 C 287.655 32.160,287.575 32.309,287.636 28.923 L 287.688 26.000 288.552 25.983 C 290.571 25.945,290.591 25.895,290.756 20.704 L 290.879 16.833 292.064 16.831 C 293.834 16.827,293.742 17.015,293.801 13.294 L 293.852 10.076 294.635 9.663 C 295.202 9.364,295.528 9.039,295.822 8.484 L 296.226 7.717 295.822 6.900 C 295.504 6.259,295.247 5.999,294.625 5.691 L 293.833 5.298 293.831 3.691 C 293.828 1.628,293.847 1.651,292.105 1.543 L 290.667 1.453 290.667 0.727 L 290.667 0.000 270.750 0.000 L 250.833 0.000 250.833 0.739 L 250.833 1.477 249.503 1.593 C 247.743 1.747,247.788 1.665,247.699 4.912 L 247.624 7.633 247.125 7.733 C 246.850 7.788,246.349 7.833,246.011 7.833 C 244.740 7.833,244.757 7.771,244.696 12.653 L 244.642 17.000 243.506 17.000 C 241.589 17.000,241.665 16.813,241.548 21.856 L 241.449 26.126 240.216 26.205 C 238.492 26.316,238.591 26.034,238.532 30.987 L 238.480 35.292 237.156 35.408 C 235.418 35.559,235.497 35.334,235.380 40.420 L 235.282 44.654 234.020 44.702 C 232.285 44.768,232.339 44.608,232.336 49.691 L 232.333 53.798 230.993 53.859 C 229.343 53.934,229.340 53.938,229.332 56.083 C 229.326 57.693,229.316 57.738,229.038 57.383 C 228.804 57.085,228.510 56.995,227.473 56.903 L 226.195 56.790 226.139 52.486 C 226.074 47.478,226.187 47.776,224.326 47.692 L 223.000 47.631 223.000 43.328 C 223.000 38.243,223.093 38.500,221.251 38.500 L 220.025 38.500 219.971 34.175 C 219.908 29.177,220.019 29.486,218.202 29.250 L 216.917 29.083 216.833 24.800 C 216.737 19.868,216.840 20.149,215.092 20.037 L 213.833 19.956 213.829 16.186 C 213.824 10.890,213.843 10.949,212.072 10.859 L 210.833 10.797 210.825 9.023 C 210.795 2.464,210.620 1.913,208.500 1.683 L 207.583 1.583 207.533 0.792 L 207.482 -0.000 166.074 -0.000 L 124.667 0.000 124.667 0.815 L 124.667 1.629 123.501 1.695 C 121.410 1.813,121.530 0.634,121.513 21.157 C 121.502 33.653,121.464 36.014,121.277 35.759 C 121.106 35.525,120.760 35.435,119.793 35.372 L 118.533 35.292 118.475 32.487 C 118.407 29.192,118.469 29.305,116.673 29.201 L 115.333 29.124 115.331 26.604 C 115.328 23.300,115.311 23.265,113.644 23.202 L 112.380 23.153 112.287 21.793 C 112.172 20.113,112.052 20.000,110.385 20.000 L 109.167 20.000 109.167 18.700 C 109.167 17.070,109.098 17.000,107.484 17.000 L 106.202 17.000 106.142 15.674 C 106.066 14.015,105.985 13.934,104.326 13.858 L 103.000 13.798 103.000 12.578 C 103.000 10.975,102.859 10.833,101.259 10.833 L 100.042 10.833 99.938 10.313 C 99.880 10.026,99.833 9.515,99.833 9.178 C 99.833 7.960,99.058 7.707,95.230 7.677 L 93.877 7.667 93.795 6.390 C 93.683 4.645,93.727 4.667,90.409 4.667 L 87.715 4.667 87.607 3.514 C 87.424 1.537,87.831 1.692,82.458 1.554 L 78.333 1.448 78.333 0.724 L 78.333 0.000 41.500 0.000 L 4.667 0.000 4.667 0.727 M312.333 0.726 L 312.333 1.452 310.964 1.566 C 309.356 1.700,309.339 1.718,309.336 3.282 C 309.333 4.649,309.306 4.681,308.020 4.855 C 306.398 5.076,306.170 5.844,306.168 11.104 L 306.167 13.791 304.818 13.869 C 303.110 13.967,303.172 13.842,303.169 17.184 L 303.167 19.952 301.892 20.048 C 300.079 20.185,300.119 20.111,300.031 23.486 L 299.958 26.316 299.437 26.420 C 297.296 26.847,297.016 27.541,297.006 32.434 L 297.000 35.284 295.636 35.389 C 293.857 35.526,293.935 35.383,293.860 38.653 L 293.796 41.464 292.574 41.579 C 290.842 41.741,290.925 41.505,290.865 46.418 L 290.813 50.619 289.459 50.723 C 287.684 50.860,287.760 50.720,287.692 53.992 L 287.634 56.802 286.316 56.918 C 284.673 57.064,284.766 56.875,284.667 60.250 L 284.583 63.083 283.464 63.167 C 281.662 63.301,281.532 63.735,281.509 69.686 L 281.500 72.121 280.727 72.227 C 280.301 72.286,279.704 72.333,279.399 72.333 C 278.583 72.333,278.500 72.640,278.500 75.635 L 278.500 78.292 277.979 78.396 C 277.693 78.453,277.149 78.501,276.771 78.503 C 275.536 78.507,275.399 78.968,275.349 83.268 L 275.333 84.620 274.404 84.716 C 272.527 84.910,272.521 84.925,272.387 90.042 L 272.288 93.833 270.998 93.833 C 269.334 93.833,269.392 93.724,269.249 97.125 L 269.128 100.000 268.023 100.003 C 266.281 100.007,266.186 100.209,266.174 103.958 L 266.167 106.167 265.442 106.167 C 263.488 106.167,263.311 106.471,263.174 110.049 C 263.066 112.890,262.998 113.156,262.388 113.164 C 261.984 113.169,261.166 114.048,260.977 114.679 C 260.869 115.039,260.721 115.333,260.648 115.333 C 260.171 115.333,259.974 119.382,260.401 120.405 C 260.647 120.993,260.757 121.041,262.375 121.263 L 263.167 121.371 263.167 122.759 C 263.167 124.395,263.139 124.368,264.865 124.467 L 266.167 124.543 266.167 125.271 L 266.167 126.000 286.167 126.000 L 306.167 126.000 306.167 125.185 L 306.167 124.371 307.333 124.305 C 309.081 124.206,309.072 124.225,309.142 120.827 L 309.200 118.000 309.680 118.000 C 311.697 118.000,312.324 116.452,312.330 111.458 L 312.333 109.000 330.740 109.000 L 349.146 109.000 349.232 109.708 C 349.279 110.098,349.355 111.230,349.401 112.225 C 349.496 114.323,349.693 114.770,350.582 114.909 C 350.904 114.959,351.424 115.040,351.739 115.089 L 352.312 115.178 352.364 118.019 C 352.426 121.372,352.405 121.333,354.174 121.333 L 355.284 121.333 355.385 122.771 C 355.508 124.510,355.348 124.350,357.073 124.458 L 358.500 124.547 358.500 125.273 L 358.500 126.000 378.500 126.000 L 398.500 126.000 398.500 125.250 L 398.500 124.500 399.250 124.500 L 400.000 124.500 400.000 116.833 L 400.000 109.167 399.273 109.167 L 398.546 109.167 398.464 106.307 C 398.366 102.928,398.407 103.000,396.570 103.000 L 395.371 103.000 395.304 98.958 C 395.220 93.973,395.267 94.092,393.328 93.890 L 392.378 93.791 392.296 90.952 C 392.199 87.593,392.242 87.667,390.385 87.667 L 389.167 87.667 389.167 84.677 C 389.167 83.032,389.100 81.645,389.019 81.595 C 388.938 81.545,388.819 81.224,388.755 80.883 C 388.512 79.591,387.716 78.833,386.600 78.833 L 386.167 78.833 386.157 76.542 C 386.139 72.485,386.072 72.340,384.208 72.336 L 383.000 72.333 383.000 69.450 C 383.000 66.045,383.063 66.167,381.300 66.167 L 380.000 66.167 379.991 62.958 C 379.976 57.281,379.936 57.152,378.128 57.011 L 376.917 56.917 376.833 54.083 C 376.734 50.709,376.831 50.905,375.192 50.762 L 373.877 50.648 373.786 47.115 C 373.664 42.328,373.513 41.938,371.712 41.724 L 370.881 41.626 370.775 40.021 C 370.716 39.139,370.668 37.905,370.668 37.281 C 370.666 35.634,370.587 35.545,369.000 35.407 L 367.667 35.290 367.667 32.594 C 367.667 29.273,367.689 29.317,365.944 29.205 L 364.667 29.123 364.649 26.603 C 364.605 20.394,364.559 20.236,362.707 20.064 L 361.500 19.952 361.500 17.258 C 361.500 13.947,361.518 13.983,359.803 13.873 L 358.552 13.793 358.450 9.927 C 358.318 4.898,358.326 4.919,356.458 4.734 L 355.333 4.624 355.331 3.353 C 355.327 1.680,355.305 1.656,353.690 1.545 L 352.333 1.452 352.333 0.726 L 352.333 0.000 332.333 0.000 L 312.333 0.000 312.333 0.726 M68.250 5.812 C 70.345 6.057,72.198 6.556,73.167 7.135 C 74.257 7.787,74.257 7.787,77.491 8.332 C 81.262 8.967,82.043 9.221,82.971 10.109 C 83.835 10.937,83.861 10.949,85.583 11.337 C 88.074 11.897,89.833 12.862,89.833 13.667 C 89.833 13.900,90.408 14.162,91.702 14.521 C 92.978 14.875,94.748 15.963,95.021 16.563 C 95.119 16.778,95.811 17.265,96.674 17.726 C 98.002 18.436,98.833 19.169,98.833 19.631 C 98.833 19.872,100.128 21.000,100.404 21.000 C 100.813 21.000,101.705 21.877,102.019 22.588 C 102.374 23.390,102.753 23.761,103.798 24.331 C 104.402 24.661,104.664 24.948,105.023 25.679 C 105.484 26.618,106.031 27.258,106.989 27.977 C 107.606 28.439,108.374 29.883,108.781 31.348 C 109.016 32.193,109.165 32.439,109.572 32.653 C 110.746 33.269,111.077 33.794,111.672 35.989 C 112.209 37.967,112.273 38.099,113.076 38.905 C 114.077 39.911,114.362 40.695,114.744 43.500 C 115.055 45.778,115.243 46.417,115.797 47.082 C 117.290 48.872,117.665 52.062,117.666 62.969 C 117.667 74.379,117.342 76.818,115.504 79.167 C 115.184 79.576,114.883 80.953,114.506 83.747 C 114.280 85.419,113.815 86.391,112.938 87.026 C 112.274 87.507,112.237 87.585,111.713 89.616 C 111.122 91.906,110.724 92.610,109.762 93.067 C 109.090 93.385,108.962 93.584,108.678 94.750 C 108.385 95.952,107.660 97.118,106.552 98.167 C 106.019 98.672,105.434 99.385,105.251 99.751 C 104.671 100.911,104.323 101.332,103.663 101.669 C 102.964 102.025,102.002 102.961,102.001 103.286 C 101.999 103.656,100.995 104.639,100.250 105.000 C 99.567 105.330,99.185 105.702,98.203 106.985 C 97.993 107.259,97.246 107.801,96.542 108.189 C 95.838 108.578,94.835 109.289,94.312 109.770 C 93.184 110.807,92.649 111.104,91.467 111.351 C 90.352 111.585,89.611 112.032,89.179 112.730 C 88.708 113.491,87.527 114.076,85.637 114.482 C 83.674 114.905,83.221 115.099,82.625 115.774 C 81.768 116.746,80.225 117.217,76.417 117.671 C 74.429 117.908,73.131 118.254,72.416 118.739 C 71.487 119.370,69.920 119.821,67.583 120.130 C 64.149 120.584,11.811 120.569,10.630 120.113 C 9.703 119.756,9.091 119.089,8.796 118.117 C 8.486 117.096,8.482 8.916,8.792 7.897 C 9.206 6.536,10.057 5.874,11.667 5.659 C 13.256 5.446,66.353 5.591,68.250 5.812 M200.091 5.848 C 202.404 6.562,203.488 8.182,204.003 11.687 C 204.402 14.406,204.393 14.379,205.077 14.901 C 205.981 15.590,206.438 16.798,206.917 19.771 C 207.474 23.226,207.564 23.528,208.164 23.971 C 209.048 24.626,209.459 25.734,210.008 28.956 C 210.630 32.607,210.527 32.295,211.411 33.217 C 212.260 34.104,212.699 35.293,213.001 37.527 C 213.413 40.573,213.723 41.568,214.470 42.243 C 215.310 43.001,215.748 44.105,216.007 46.109 C 216.419 49.306,216.768 50.461,217.563 51.256 C 218.433 52.126,218.861 53.356,219.245 56.083 C 219.641 58.891,219.878 59.614,220.643 60.349 C 221.507 61.179,221.932 62.351,222.250 64.777 C 222.636 67.718,222.914 68.635,223.661 69.417 C 224.723 70.530,225.030 71.367,225.339 74.000 C 225.586 76.105,225.943 77.300,226.521 77.963 C 227.140 78.672,227.601 79.588,227.850 80.603 C 227.960 81.050,228.315 81.942,228.638 82.583 L 229.225 83.750 229.540 82.750 C 229.713 82.200,229.924 81.075,230.009 80.250 C 230.298 77.440,230.619 76.516,231.693 75.402 C 232.467 74.599,232.687 73.893,233.158 70.709 C 233.527 68.207,233.852 67.335,234.799 66.304 C 235.532 65.505,235.943 64.147,236.320 61.281 C 236.580 59.302,237.028 58.164,237.834 57.436 C 238.543 56.795,238.908 55.623,239.344 52.587 C 239.662 50.366,240.092 49.227,240.912 48.430 C 241.699 47.665,241.867 47.109,242.411 43.487 C 242.731 41.350,243.193 40.166,243.984 39.451 C 244.844 38.674,244.761 38.919,245.326 35.519 C 245.890 32.124,246.240 31.128,247.169 30.268 C 247.932 29.562,247.878 29.726,248.407 26.500 C 248.998 22.894,249.418 21.753,250.384 21.120 C 250.940 20.756,251.088 20.266,251.503 17.421 C 251.937 14.440,252.312 13.355,253.256 12.342 C 253.964 11.584,254.063 11.342,254.582 9.105 C 255.015 7.236,255.636 6.291,256.750 5.804 C 257.275 5.574,283.454 5.364,284.620 5.580 C 287.252 6.068,287.644 11.626,285.155 13.158 C 284.703 13.436,284.333 13.722,284.333 13.794 C 284.333 16.009,283.102 19.894,282.089 20.878 C 281.322 21.623,281.053 22.312,280.832 24.101 C 280.485 26.910,280.077 27.980,279.043 28.800 C 278.364 29.337,277.985 30.516,277.503 33.583 C 277.270 35.063,276.640 36.376,275.887 36.950 C 275.160 37.505,275.034 37.830,274.733 39.917 C 274.364 42.483,273.920 43.711,272.997 44.723 C 272.135 45.668,271.799 46.555,271.498 48.681 C 271.193 50.838,270.857 51.653,269.880 52.602 L 269.003 53.454 268.585 55.935 C 268.124 58.671,267.549 60.148,266.655 60.901 C 265.959 61.486,265.671 62.281,265.398 64.368 C 265.084 66.761,264.675 67.818,263.744 68.637 C 262.958 69.329,262.710 70.059,262.173 73.250 C 261.927 74.709,261.149 76.371,260.492 76.839 C 259.895 77.264,259.593 77.932,259.439 79.167 C 259.056 82.232,258.699 83.269,257.557 84.616 C 256.748 85.571,256.417 86.450,256.157 88.333 C 255.818 90.789,255.259 92.128,254.302 92.771 C 253.701 93.175,253.583 93.507,253.150 96.000 C 252.685 98.673,252.296 99.709,251.394 100.673 C 250.584 101.539,250.249 102.331,250.082 103.771 C 249.780 106.386,249.121 108.046,248.160 108.613 C 247.588 108.952,247.538 109.102,246.925 112.333 C 246.440 114.891,245.922 116.122,245.051 116.786 C 244.677 117.071,244.256 117.666,243.901 118.410 C 243.505 119.238,243.159 119.706,242.724 120.000 L 242.108 120.417 228.096 120.463 C 211.090 120.519,212.664 120.804,211.335 117.431 C 211.002 116.587,210.551 115.819,210.083 115.298 C 209.166 114.277,208.758 113.198,208.421 110.895 C 208.069 108.489,207.958 108.192,207.100 107.385 C 206.228 106.565,205.796 105.519,205.412 103.306 C 204.882 100.244,204.749 99.852,204.031 99.238 C 203.121 98.459,202.698 97.450,202.408 95.365 C 202.071 92.936,201.755 92.044,200.980 91.321 C 200.083 90.484,199.585 89.244,199.178 86.833 C 198.685 83.913,198.728 84.037,197.925 83.306 C 197.071 82.528,196.595 81.515,196.330 79.911 C 195.785 76.613,195.510 75.802,194.656 74.973 C 193.715 74.059,193.322 72.995,193.001 70.500 C 192.749 68.531,192.560 68.068,191.624 67.132 C 190.715 66.224,190.352 65.196,189.810 62.000 L 189.428 59.750 188.696 59.083 C 187.576 58.063,187.241 57.206,186.906 54.509 C 186.724 53.046,186.222 51.819,185.503 51.085 C 184.631 50.194,184.224 49.210,183.907 47.230 C 183.370 43.874,183.377 43.895,182.512 43.039 C 181.611 42.146,181.141 41.072,180.853 39.250 C 180.413 36.460,180.079 35.479,179.372 34.891 C 178.505 34.171,178.049 33.070,177.746 30.959 C 177.378 28.403,177.207 27.905,176.416 27.091 C 175.371 26.016,175.023 25.129,174.516 22.255 L 174.062 19.676 173.211 18.861 C 172.274 17.962,171.813 16.837,171.597 14.917 C 171.432 13.460,170.934 12.320,170.272 11.891 C 169.178 11.180,168.605 8.261,169.330 7.089 C 170.278 5.555,170.380 5.545,185.941 5.521 C 198.706 5.500,198.987 5.507,200.091 5.848 M346.917 5.879 C 347.458 6.182,347.728 6.531,348.356 7.741 C 348.781 8.560,349.428 9.538,349.793 9.913 C 350.713 10.859,351.118 11.735,351.509 13.625 C 352.248 17.206,352.158 16.950,352.838 17.400 C 353.736 17.994,354.260 19.187,354.663 21.550 C 355.046 23.803,355.095 23.919,356.069 24.894 C 356.851 25.675,357.396 26.890,357.580 28.257 C 357.854 30.292,358.347 31.537,359.267 32.517 C 360.243 33.557,360.474 34.162,360.915 36.833 C 361.248 38.843,361.382 39.167,362.071 39.615 C 362.811 40.096,363.442 41.421,363.683 43.000 C 364.023 45.217,364.444 46.335,365.254 47.167 C 366.224 48.163,366.558 48.985,367.076 51.651 L 367.510 53.886 368.409 54.750 C 369.403 55.705,369.677 56.379,370.003 58.667 C 370.247 60.382,370.587 61.233,371.221 61.717 C 372.069 62.363,372.616 63.569,373.065 65.778 C 373.701 68.904,373.771 69.101,374.391 69.484 C 375.224 69.999,375.781 71.183,376.089 73.096 C 376.505 75.679,376.744 76.361,377.376 76.767 C 378.086 77.224,378.755 78.479,379.009 79.833 C 379.554 82.736,379.835 83.489,380.764 84.530 C 381.769 85.657,382.035 86.334,382.422 88.750 C 382.760 90.862,382.915 91.254,383.574 91.661 C 384.390 92.166,384.956 93.373,385.263 95.269 C 385.612 97.427,385.930 98.256,386.672 98.942 C 387.595 99.796,388.078 100.977,388.634 103.745 C 388.909 105.118,389.224 106.269,389.333 106.306 C 390.411 106.665,391.200 108.200,391.564 110.645 C 391.806 112.271,392.138 113.167,392.498 113.167 C 393.958 113.167,395.026 117.433,393.958 119.002 C 392.921 120.525,393.493 120.473,377.620 120.488 C 362.149 120.502,363.139 120.617,362.066 118.676 C 361.835 118.258,361.345 117.707,360.977 117.451 C 360.110 116.848,359.580 115.681,359.333 113.833 C 359.024 111.521,358.708 110.615,357.922 109.783 C 356.768 108.561,356.005 106.144,356.001 103.692 C 356.000 102.953,355.521 102.174,355.002 102.067 C 354.772 102.019,354.133 101.819,353.583 101.622 L 352.583 101.263 330.911 101.213 L 309.240 101.164 308.637 101.971 C 308.306 102.414,307.878 103.086,307.685 103.463 C 307.493 103.841,307.034 104.392,306.666 104.688 C 305.911 105.294,305.812 105.566,305.406 108.167 C 305.049 110.451,304.676 111.393,303.756 112.327 C 303.086 113.007,302.966 113.252,302.643 114.586 C 301.975 117.351,301.836 117.747,301.251 118.538 C 299.804 120.496,299.773 120.500,284.710 120.500 C 270.798 120.500,271.387 120.541,270.417 119.509 L 269.917 118.978 269.917 116.780 C 269.917 114.074,270.120 113.447,271.414 112.169 C 272.424 111.172,272.817 110.251,273.167 108.058 C 273.420 106.476,274.146 104.959,274.881 104.478 C 275.573 104.024,275.779 103.529,276.087 101.583 C 276.497 98.993,276.910 98.075,277.961 97.417 C 278.555 97.045,278.623 96.857,279.178 94.083 C 279.616 91.891,279.986 91.042,280.943 90.029 C 281.749 89.175,282.046 88.420,282.417 86.286 C 282.738 84.433,283.189 83.474,284.084 82.741 C 284.855 82.109,284.937 81.893,285.410 79.250 C 285.754 77.332,286.308 76.171,287.145 75.617 C 287.550 75.349,287.824 75.019,287.888 74.721 C 287.944 74.462,288.180 73.364,288.413 72.281 C 288.904 70.002,289.274 69.188,290.258 68.216 C 291.038 67.447,291.403 66.542,291.587 64.923 C 291.806 62.988,292.239 61.969,293.227 61.065 C 294.090 60.274,294.131 60.196,294.329 58.997 C 294.875 55.683,295.147 54.978,296.236 54.068 C 297.024 53.409,297.195 52.959,297.745 50.082 C 298.066 48.403,298.586 47.278,299.367 46.573 C 300.199 45.821,300.491 45.133,300.775 43.250 C 301.127 40.921,301.394 40.288,302.411 39.377 L 303.297 38.583 303.655 36.667 C 304.176 33.884,304.430 33.220,305.350 32.248 C 306.303 31.241,306.415 30.975,306.930 28.516 C 307.406 26.243,307.819 25.328,308.680 24.636 C 309.398 24.059,309.755 23.248,309.914 21.833 C 310.173 19.539,310.785 18.153,311.864 17.420 C 312.404 17.054,312.446 16.945,312.947 14.618 C 313.555 11.801,313.784 11.252,314.785 10.223 C 315.258 9.737,315.736 8.975,316.115 8.107 C 317.354 5.264,315.781 5.516,332.333 5.510 L 346.250 5.505 346.917 5.879 M157.653 6.819 C 158.949 7.003,160.045 8.723,159.980 10.470 C 159.971 10.716,159.942 15.904,159.917 22.000 C 159.866 34.159,159.844 34.444,158.859 35.509 C 158.155 36.269,157.054 36.334,144.780 36.332 L 133.750 36.330 132.899 35.934 C 131.783 35.414,131.406 34.999,130.717 33.530 L 130.146 32.310 130.336 30.780 C 130.496 29.492,130.469 14.136,130.301 10.917 C 130.237 9.694,131.384 7.699,132.477 7.131 L 133.371 6.667 145.061 6.679 C 151.490 6.686,157.156 6.749,157.653 6.819 M41.145 32.051 C 40.505 32.538,40.476 34.096,40.530 64.440 L 40.583 93.629 41.000 93.987 L 41.417 94.345 51.500 94.271 C 61.914 94.196,63.735 94.090,64.512 93.517 C 65.353 92.896,67.269 92.037,68.417 91.767 C 71.928 90.938,72.321 90.784,72.755 90.056 C 73.231 89.257,73.608 88.986,74.787 88.597 C 75.641 88.315,76.500 87.556,76.500 87.083 C 76.500 86.685,77.314 85.877,77.985 85.609 C 78.722 85.314,79.100 84.859,79.337 83.984 C 79.582 83.079,80.183 82.294,80.961 81.864 C 81.733 81.439,81.662 81.611,82.418 78.298 C 82.859 76.365,83.312 75.392,84.265 74.333 C 85.924 72.492,85.926 53.530,84.269 52.444 C 83.674 52.054,82.848 50.301,82.493 48.674 C 82.104 46.893,81.728 45.845,81.352 45.500 C 80.088 44.338,79.408 43.402,79.074 42.363 C 78.735 41.310,78.672 41.229,77.900 40.859 C 76.800 40.333,76.533 40.071,76.021 39.016 C 75.600 38.150,75.544 38.104,74.583 37.838 C 73.206 37.457,72.619 37.119,71.614 36.127 C 70.706 35.231,69.411 34.500,68.731 34.500 C 67.620 34.500,64.976 33.752,63.384 32.988 C 61.727 32.193,61.630 32.168,59.468 32.003 C 56.146 31.750,41.490 31.788,41.145 32.051 M54.167 38.906 C 55.771 39.034,57.608 39.227,58.250 39.335 C 63.296 40.186,63.886 40.358,65.308 41.394 C 66.232 42.066,67.141 42.538,68.451 43.024 C 69.210 43.306,69.706 43.672,70.772 44.733 C 71.517 45.476,72.431 46.332,72.803 46.636 C 73.244 46.995,73.579 47.460,73.762 47.969 C 74.389 49.709,75.041 50.930,75.582 51.376 C 76.237 51.915,76.914 53.258,77.075 54.333 C 77.384 56.402,78.079 59.588,78.530 61.000 C 79.235 63.208,79.143 65.310,78.258 67.185 C 77.857 68.034,77.595 68.934,77.414 70.083 C 76.905 73.315,76.522 74.378,75.403 75.671 C 75.044 76.086,74.608 76.761,74.433 77.171 C 73.665 78.980,73.426 79.375,72.791 79.880 C 72.419 80.175,71.921 80.640,71.683 80.912 C 70.265 82.536,69.735 82.957,68.662 83.311 C 68.001 83.528,67.249 83.940,66.745 84.360 C 64.879 85.915,60.200 86.984,54.083 87.252 C 47.729 87.530,45.800 86.534,46.174 83.167 C 46.355 81.536,46.355 44.464,46.174 42.833 C 45.908 40.435,46.770 39.315,49.167 38.948 C 51.207 38.635,50.808 38.639,54.167 38.906 M157.344 40.639 C 158.647 40.784,159.902 41.693,160.436 42.877 C 160.836 43.764,160.938 116.966,160.541 118.270 C 160.282 119.123,159.796 119.753,159.110 120.128 C 158.287 120.579,133.245 120.570,131.785 120.118 C 130.478 119.715,129.578 118.883,129.245 117.773 C 128.868 116.520,128.851 44.105,129.227 43.379 C 129.592 42.673,130.038 42.340,131.885 41.396 L 133.583 40.529 144.917 40.523 C 151.150 40.520,156.742 40.572,157.344 40.639 M330.444 41.292 C 330.317 41.544,330.162 42.500,330.100 43.417 C 329.900 46.380,329.375 47.968,328.245 49.022 C 327.499 49.718,327.239 50.315,327.087 51.682 C 326.765 54.568,326.335 55.822,325.278 56.955 C 324.434 57.859,324.112 58.734,323.745 61.127 C 323.443 63.090,322.993 64.130,322.070 64.995 C 321.666 65.373,321.300 65.848,321.256 66.050 C 321.213 66.252,321.059 67.092,320.915 67.917 C 320.460 70.521,320.238 71.092,319.269 72.146 C 318.142 73.371,317.563 75.092,318.084 75.668 C 318.570 76.204,342.908 76.187,343.778 75.649 C 344.157 75.415,344.317 75.208,344.261 75.024 C 344.214 74.874,344.064 74.075,343.927 73.250 C 343.563 71.056,343.253 70.214,342.513 69.412 C 341.493 68.305,341.189 67.534,340.757 64.952 C 340.291 62.168,340.203 61.909,339.501 61.250 C 338.594 60.397,338.157 59.283,337.576 56.341 C 337.042 53.634,337.028 53.593,336.426 53.110 C 335.411 52.295,335.033 51.324,334.600 48.417 C 334.281 46.275,333.989 45.478,333.195 44.575 C 332.608 43.909,331.833 42.299,331.833 41.747 C 331.833 41.545,331.005 40.833,330.770 40.833 C 330.718 40.833,330.571 41.040,330.444 41.292 M331.507 65.788 C 331.732 65.902,332.348 65.996,332.875 65.998 C 333.785 66.000,333.833 66.021,333.833 66.417 C 333.833 66.830,333.821 66.833,332.353 66.833 C 330.718 66.833,330.674 66.801,330.669 65.569 C 330.666 64.923,330.885 64.680,331.006 65.194 C 331.057 65.407,331.282 65.674,331.507 65.788 " stroke="none" fill="#ebe5e4" fill-rule="evenodd"></path><path id="path1" d="M132.477 7.131 C 131.384 7.699,130.237 9.694,130.301 10.917 C 130.469 14.136,130.496 29.492,130.336 30.780 L 130.146 32.310 130.717 33.530 C 131.406 34.999,131.783 35.414,132.899 35.934 L 133.750 36.330 144.780 36.332 C 157.054 36.334,158.155 36.269,158.859 35.509 C 159.844 34.444,159.866 34.159,159.917 22.000 C 159.942 15.904,159.971 10.716,159.980 10.470 C 160.006 9.781,159.365 7.889,158.938 7.393 C 158.359 6.719,157.842 6.692,145.061 6.679 L 133.371 6.667 132.477 7.131 M49.167 38.948 C 46.770 39.315,45.908 40.435,46.174 42.833 C 46.355 44.464,46.355 81.536,46.174 83.167 C 45.800 86.534,47.729 87.530,54.083 87.252 C 60.200 86.984,64.879 85.915,66.745 84.360 C 67.249 83.940,68.001 83.528,68.662 83.311 C 69.735 82.957,70.265 82.536,71.683 80.912 C 71.921 80.640,72.419 80.175,72.791 79.880 C 73.426 79.375,73.665 78.980,74.433 77.171 C 74.608 76.761,75.044 76.086,75.403 75.671 C 76.522 74.378,76.905 73.315,77.414 70.083 C 77.595 68.934,77.857 68.034,78.258 67.185 C 79.143 65.310,79.235 63.208,78.530 61.000 C 78.079 59.588,77.384 56.402,77.075 54.333 C 76.914 53.258,76.237 51.915,75.582 51.376 C 75.041 50.930,74.389 49.709,73.762 47.969 C 73.579 47.460,73.244 46.995,72.803 46.636 C 72.431 46.332,71.517 45.476,70.772 44.733 C 69.706 43.672,69.210 43.306,68.451 43.024 C 67.141 42.538,66.232 42.066,65.308 41.394 C 63.886 40.358,63.296 40.186,58.250 39.335 C 57.169 39.153,51.565 38.654,51.000 38.690 C 50.862 38.698,50.038 38.814,49.167 38.948 " stroke="none" fill="#fc7c64" fill-rule="evenodd"></path><path id="path2" d="M13.167 8.343 C 12.754 8.623,12.055 9.039,11.613 9.268 C 10.455 9.868,10.293 10.346,10.628 12.167 C 11.026 14.326,11.026 111.674,10.628 113.833 C 10.300 115.615,10.464 116.138,11.520 116.677 C 11.912 116.877,12.620 117.297,13.093 117.611 L 13.952 118.182 36.768 118.121 C 59.223 118.061,59.616 118.055,61.667 117.702 C 65.926 116.968,67.900 116.680,70.458 116.420 C 75.670 115.888,77.143 115.576,78.211 114.775 C 79.137 114.081,80.019 113.730,82.000 113.266 C 85.133 112.532,85.166 112.520,86.067 111.668 C 86.969 110.816,88.139 110.221,90.011 109.663 C 91.020 109.363,91.219 109.234,91.661 108.591 C 92.056 108.018,92.442 107.729,93.456 107.247 C 94.294 106.850,95.049 106.332,95.601 105.775 C 96.459 104.912,97.642 103.934,98.960 102.999 C 99.351 102.722,99.927 102.140,100.240 101.706 C 100.553 101.272,101.325 100.429,101.955 99.833 C 102.997 98.848,104.500 96.902,104.500 96.537 C 104.500 96.328,105.661 95.191,105.983 95.086 C 106.367 94.960,106.881 94.071,107.236 92.917 C 107.523 91.984,107.984 91.381,109.050 90.546 C 109.297 90.352,109.896 88.571,110.325 86.750 C 110.562 85.747,111.118 84.760,111.825 84.088 C 112.515 83.431,112.912 82.043,113.256 79.083 C 113.630 75.869,114.192 73.237,114.946 71.167 L 115.583 69.417 115.583 63.000 L 115.583 56.583 114.897 54.667 C 114.109 52.464,113.585 49.876,113.258 46.565 C 112.989 43.842,112.682 42.853,111.789 41.833 C 110.891 40.808,110.613 40.202,110.104 38.167 C 109.364 35.208,109.392 35.274,108.738 34.922 C 107.956 34.501,107.584 34.011,107.240 32.949 C 106.867 31.798,106.227 30.791,105.661 30.466 C 105.408 30.321,104.701 29.446,104.090 28.523 C 103.386 27.458,102.579 26.492,101.886 25.884 C 101.284 25.355,100.569 24.527,100.293 24.038 C 99.907 23.353,99.606 23.057,98.969 22.734 C 98.515 22.504,97.600 21.773,96.936 21.108 C 95.737 19.909,94.792 19.236,93.319 18.530 C 92.846 18.303,92.349 17.877,92.017 17.415 C 91.387 16.539,91.107 16.368,89.801 16.063 C 88.493 15.758,87.314 15.138,86.548 14.354 C 85.691 13.475,84.991 13.150,83.412 12.895 C 81.231 12.543,79.887 12.057,79.108 11.338 C 78.237 10.535,76.056 9.913,73.583 9.762 C 71.414 9.629,65.388 8.885,64.000 8.580 C 60.567 7.823,60.944 7.833,36.793 7.834 L 13.917 7.835 13.167 8.343 M173.427 8.458 C 172.327 10.132,172.766 13.730,174.266 15.333 C 175.186 16.317,175.572 17.237,175.995 19.457 C 176.631 22.791,176.708 23.004,177.612 23.925 C 178.516 24.848,178.814 25.631,179.160 28.000 C 179.430 29.850,179.801 30.830,180.538 31.637 C 181.425 32.608,181.749 33.408,182.176 35.670 C 182.732 38.619,182.800 38.814,183.498 39.498 C 184.427 40.409,184.780 41.228,185.163 43.359 C 185.618 45.891,186.060 47.169,186.687 47.765 C 187.592 48.625,188.060 49.887,188.505 52.667 C 188.757 54.247,189.040 54.934,189.740 55.667 C 190.622 56.589,190.942 57.425,191.527 60.342 L 192.075 63.071 192.862 63.862 C 193.763 64.768,194.213 65.953,194.488 68.147 C 194.700 69.837,195.152 71.009,195.922 71.861 C 196.834 72.870,197.268 74.001,197.671 76.414 C 198.066 78.787,198.214 79.175,199.000 79.917 C 199.808 80.678,200.157 81.517,200.588 83.729 C 201.181 86.772,201.417 87.426,202.169 88.105 C 202.972 88.830,203.415 89.957,203.754 92.135 C 204.075 94.194,204.417 95.111,205.111 95.765 C 205.913 96.522,206.305 97.555,206.918 100.533 C 207.460 103.164,207.466 103.179,208.222 103.987 C 209.186 105.018,209.444 105.650,209.828 107.917 C 210.243 110.367,210.575 111.287,211.331 112.083 C 212.060 112.851,212.375 113.438,212.639 114.518 C 212.866 115.449,213.768 117.499,213.951 117.503 C 214.024 117.504,214.788 117.654,215.650 117.836 C 217.286 118.181,234.688 118.342,239.629 118.057 L 241.509 117.949 242.573 115.740 C 243.307 114.216,243.794 113.416,244.142 113.159 C 244.787 112.682,244.894 112.387,245.414 109.667 C 245.875 107.250,246.534 105.593,247.260 105.022 C 247.835 104.570,248.298 103.431,248.497 101.982 C 248.861 99.321,249.395 97.898,250.322 97.118 C 250.872 96.656,251.260 95.497,251.760 92.833 C 252.100 91.017,252.495 90.135,253.402 89.166 C 253.968 88.560,254.172 88.184,254.312 87.485 C 255.304 82.537,255.345 82.415,256.411 81.262 C 257.121 80.494,257.598 79.201,257.845 77.375 C 258.122 75.326,258.490 74.351,259.306 73.502 C 260.263 72.506,260.221 72.610,260.817 69.782 C 261.375 67.130,261.689 66.345,262.590 65.348 C 263.369 64.486,263.608 63.846,263.911 61.813 C 264.281 59.329,264.574 58.568,265.511 57.656 C 266.267 56.920,267.167 54.275,267.167 52.789 C 267.167 51.912,267.911 50.230,268.652 49.433 C 269.583 48.432,269.755 48.027,270.004 46.250 C 270.385 43.531,270.923 42.093,271.899 41.181 C 272.474 40.644,272.932 39.364,273.244 37.429 C 273.585 35.311,273.991 34.306,274.899 33.335 C 275.314 32.892,275.690 32.354,275.735 32.139 C 275.780 31.925,276.013 30.781,276.253 29.597 C 276.726 27.259,277.040 26.493,277.923 25.515 C 278.716 24.637,278.968 23.949,279.347 21.621 C 279.734 19.253,280.037 18.511,281.029 17.500 C 281.716 16.800,281.790 16.634,282.143 15.000 C 282.673 12.552,282.954 11.752,283.484 11.184 L 283.944 10.691 283.648 9.910 C 282.825 7.742,283.389 7.833,270.857 7.833 L 260.200 7.833 259.314 8.244 C 258.826 8.470,258.073 8.745,257.640 8.856 C 256.770 9.079,256.000 10.315,256.000 11.488 C 256.000 13.098,255.192 15.313,254.253 16.281 C 253.671 16.880,253.240 18.367,252.838 21.167 C 252.524 23.346,252.031 24.507,250.995 25.500 C 250.566 25.911,250.103 27.721,249.736 30.417 C 249.519 32.015,249.041 33.222,248.266 34.130 C 247.379 35.169,247.468 34.906,246.833 38.373 C 246.261 41.500,245.955 42.365,245.130 43.185 C 244.381 43.928,244.261 44.288,243.760 47.282 C 243.257 50.285,242.844 51.482,241.989 52.410 C 241.291 53.166,241.230 53.361,240.572 56.917 C 240.082 59.562,239.790 60.345,238.942 61.283 C 238.171 62.137,238.080 62.401,237.655 65.036 C 237.156 68.124,236.804 69.168,235.927 70.155 C 235.067 71.124,234.935 71.497,234.581 73.965 C 234.168 76.846,233.612 78.394,232.691 79.228 C 232.246 79.631,231.744 81.217,231.500 82.989 C 231.081 86.029,230.005 87.108,228.178 86.322 C 225.931 85.356,224.820 83.005,223.929 77.333 C 223.538 74.843,223.159 73.500,222.847 73.500 C 222.166 73.500,221.275 71.098,220.838 68.083 C 220.458 65.465,220.284 64.923,219.579 64.167 C 218.550 63.062,218.183 62.001,217.677 58.667 C 217.313 56.261,217.146 55.746,216.587 55.306 C 215.798 54.685,215.211 53.097,214.663 50.099 C 214.128 47.168,213.952 46.639,213.326 46.083 C 212.560 45.402,212.077 43.923,211.503 40.500 C 211.058 37.848,211.081 37.913,210.316 37.084 C 209.441 36.135,209.059 35.198,208.745 33.237 C 208.155 29.543,207.905 28.713,207.126 27.846 C 206.290 26.915,205.993 26.082,205.502 23.278 C 204.903 19.852,204.863 19.729,204.064 18.793 C 203.140 17.710,202.816 16.701,202.341 13.415 C 201.898 10.361,201.906 10.378,200.572 9.686 C 199.977 9.378,199.242 8.835,198.938 8.479 L 198.385 7.833 186.111 7.833 L 173.838 7.833 173.427 8.458 M320.136 8.165 C 319.431 8.325,318.749 8.497,318.621 8.546 C 318.371 8.642,317.683 9.999,317.122 11.500 C 316.798 12.369,316.015 13.359,315.525 13.520 C 315.389 13.565,315.055 14.613,314.678 16.172 C 313.989 19.028,313.770 19.548,312.821 20.577 C 311.986 21.484,311.722 22.136,311.344 24.234 C 310.993 26.181,310.604 27.061,309.772 27.791 C 308.993 28.475,308.753 29.004,308.506 30.583 C 308.136 32.937,307.738 33.950,306.841 34.814 C 305.976 35.648,305.814 36.054,305.181 38.968 C 304.811 40.669,304.190 41.977,303.460 42.592 C 302.845 43.109,302.546 43.853,302.241 45.631 C 301.843 47.943,301.567 48.600,300.580 49.579 C 299.820 50.333,299.674 50.586,299.505 51.434 C 298.763 55.161,298.544 55.744,297.517 56.739 C 296.770 57.463,296.510 58.102,296.010 60.450 C 295.593 62.407,295.101 63.543,294.408 64.152 C 293.640 64.826,293.364 65.441,293.075 67.124 C 292.624 69.751,292.405 70.293,291.411 71.248 L 290.513 72.111 290.087 74.097 C 289.475 76.943,289.250 77.520,288.342 78.557 C 287.513 79.505,286.983 80.755,286.741 82.333 C 286.491 83.967,286.016 85.117,285.284 85.861 C 284.201 86.962,284.188 86.990,283.825 89.003 C 283.401 91.359,282.985 92.341,282.076 93.132 C 281.381 93.737,281.355 93.798,280.823 96.083 C 280.152 98.961,279.997 99.338,279.092 100.309 C 278.182 101.285,277.889 101.987,277.500 104.132 C 277.131 106.168,276.661 107.225,275.903 107.720 C 275.208 108.175,274.931 108.830,274.586 110.833 C 274.264 112.708,273.795 113.606,272.869 114.127 C 271.678 114.796,271.528 115.723,272.244 117.981 C 272.359 118.345,296.800 118.315,297.083 117.951 C 297.413 117.527,298.432 116.872,299.215 116.580 C 300.358 116.155,300.579 115.741,300.889 113.453 C 301.193 111.212,301.578 110.200,302.488 109.250 C 303.220 108.487,303.680 107.231,304.059 104.966 C 304.364 103.145,304.943 101.854,305.724 101.259 C 306.052 101.008,306.585 100.405,306.908 99.918 C 307.638 98.818,308.349 98.209,309.047 98.083 C 309.342 98.030,319.408 98.009,331.417 98.035 L 353.250 98.083 354.240 98.482 C 355.762 99.095,357.031 100.450,357.386 101.842 C 358.395 105.793,358.339 105.642,359.096 106.421 C 359.910 107.259,360.328 108.364,360.670 110.586 C 360.950 112.404,361.307 113.491,361.763 113.914 C 362.301 114.413,363.559 116.147,364.178 117.244 L 364.698 118.167 376.997 118.167 L 389.295 118.167 389.874 117.526 C 390.852 116.443,391.116 115.511,390.692 114.634 C 390.501 114.239,390.231 113.373,390.092 112.709 C 389.747 111.067,389.479 110.484,388.699 109.680 C 387.784 108.737,387.466 107.963,386.856 105.186 C 386.332 102.804,386.324 102.784,385.604 102.150 C 384.697 101.352,384.278 100.383,383.918 98.251 C 383.573 96.202,383.313 95.558,382.591 94.963 C 381.828 94.334,381.413 93.404,380.929 91.244 C 380.270 88.304,380.099 87.867,379.355 87.230 C 378.532 86.526,378.124 85.497,377.673 82.997 C 377.298 80.911,377.194 80.661,376.501 80.167 C 375.718 79.610,375.213 78.571,374.921 76.917 C 374.494 74.497,374.062 73.354,373.242 72.476 C 372.313 71.481,372.102 70.950,371.521 68.155 L 371.042 65.853 370.199 65.032 C 369.281 64.137,368.850 63.066,368.503 60.812 C 368.275 59.326,367.932 58.562,367.089 57.658 C 366.474 56.999,365.667 55.379,365.667 54.805 C 365.667 53.306,364.754 50.741,363.936 49.939 C 362.974 48.996,362.740 48.393,362.268 45.632 C 361.975 43.924,361.823 43.595,360.999 42.882 C 360.212 42.202,359.788 41.200,359.351 38.984 C 358.867 36.526,358.606 35.883,357.749 35.039 C 356.929 34.230,356.588 33.362,356.095 30.833 C 355.740 29.006,355.604 28.704,354.844 28.054 C 354.030 27.357,353.549 26.215,353.260 24.290 C 352.957 22.271,352.615 21.442,351.638 20.363 C 350.764 19.396,350.515 18.738,349.817 15.531 C 349.457 13.881,349.408 13.776,348.596 12.947 C 348.131 12.472,347.648 11.792,347.523 11.435 C 347.398 11.079,347.039 10.247,346.725 9.587 L 346.155 8.386 344.452 8.109 C 341.858 7.687,322.036 7.733,320.136 8.165 M56.833 30.072 C 65.145 30.167,66.910 30.436,68.290 31.815 C 68.688 32.213,69.201 32.460,70.288 32.774 C 72.166 33.318,73.428 33.918,73.794 34.440 C 74.583 35.568,74.904 35.841,75.847 36.185 C 76.886 36.564,77.745 37.341,77.927 38.067 C 77.989 38.314,78.322 38.622,78.814 38.890 C 79.855 39.456,80.168 39.822,80.668 41.054 C 81.023 41.929,81.217 42.168,81.958 42.646 C 82.972 43.301,83.416 44.085,84.075 46.388 C 84.436 47.647,84.602 47.963,85.226 48.568 C 86.357 49.668,86.324 49.516,87.658 59.691 C 88.097 63.038,88.101 62.897,87.427 68.132 C 87.111 70.580,86.802 73.183,86.739 73.917 C 86.569 75.897,86.129 77.154,85.270 78.110 C 84.714 78.728,84.436 79.252,84.091 80.334 C 83.274 82.899,83.116 83.160,81.860 84.031 C 81.478 84.296,81.179 84.730,80.905 85.417 C 80.605 86.167,80.224 86.690,79.378 87.511 C 78.757 88.113,77.981 88.908,77.653 89.277 C 77.324 89.646,76.669 90.122,76.196 90.336 C 75.724 90.549,75.296 90.857,75.244 91.018 C 75.082 91.530,74.063 92.286,73.140 92.580 C 71.545 93.087,70.000 93.716,70.000 93.859 C 70.000 94.157,68.558 95.020,67.527 95.339 C 64.934 96.139,42.467 96.625,40.362 95.926 C 38.865 95.429,37.638 94.100,37.479 92.803 C 37.304 91.371,37.309 33.962,37.485 32.923 C 37.593 32.283,37.752 31.987,38.187 31.617 C 40.223 29.883,40.304 29.866,45.917 29.939 C 48.392 29.972,53.304 30.031,56.833 30.072 M332.399 38.747 C 334.596 39.385,335.373 40.806,336.007 45.342 C 336.398 48.144,336.628 48.849,337.352 49.458 C 338.173 50.148,338.616 51.279,339.176 54.105 C 339.760 57.054,339.804 57.172,340.588 57.860 C 341.399 58.572,341.800 59.549,342.088 61.510 C 342.426 63.824,342.838 64.998,343.646 65.957 C 344.494 66.962,345.833 71.004,345.833 72.557 C 345.833 72.611,346.156 73.019,346.550 73.462 C 348.271 75.401,347.627 77.253,345.086 77.666 C 343.332 77.952,317.962 77.908,317.402 77.619 C 315.399 76.583,315.618 71.650,317.754 69.681 C 318.585 68.915,318.921 68.019,319.486 65.060 C 319.861 63.093,320.287 62.147,321.168 61.325 C 321.851 60.688,321.941 60.433,322.401 57.833 C 322.807 55.534,323.098 54.780,323.933 53.850 C 324.823 52.861,325.239 51.750,325.583 49.447 C 325.880 47.461,326.408 46.220,327.234 45.564 C 327.907 45.031,328.043 44.654,328.345 42.500 C 328.721 39.818,329.967 37.915,331.073 38.332 C 331.262 38.403,331.859 38.590,332.399 38.747 M132.861 44.010 C 132.152 44.419,132.001 44.579,132.111 44.803 C 132.312 45.209,132.380 112.074,132.181 113.829 L 132.020 115.250 132.915 116.667 L 133.809 118.083 144.507 118.126 L 155.205 118.169 156.528 117.751 C 157.255 117.521,157.991 117.333,158.163 117.333 C 158.857 117.333,159.230 115.670,159.005 113.583 C 158.779 111.495,158.839 45.753,159.067 44.984 C 159.167 44.647,159.104 44.446,158.779 44.068 L 158.362 43.583 146.056 43.540 L 133.750 43.497 132.861 44.010 " stroke="none" fill="#040404" fill-rule="evenodd"></path><path id="path3" d="M11.667 5.659 C 10.057 5.874,9.206 6.536,8.792 7.897 C 8.482 8.916,8.486 117.096,8.796 118.117 C 9.091 119.089,9.703 119.756,10.630 120.113 C 11.811 120.569,64.149 120.584,67.583 120.130 C 69.920 119.821,71.487 119.370,72.416 118.739 C 73.131 118.254,74.429 117.908,76.417 117.671 C 80.225 117.217,81.768 116.746,82.625 115.774 C 83.221 115.099,83.674 114.905,85.637 114.482 C 87.527 114.076,88.708 113.491,89.179 112.730 C 89.611 112.032,90.352 111.585,91.467 111.351 C 92.649 111.104,93.184 110.807,94.312 109.770 C 94.835 109.289,95.838 108.578,96.542 108.189 C 97.246 107.801,97.993 107.259,98.203 106.985 C 99.185 105.702,99.567 105.330,100.250 105.000 C 100.995 104.639,101.999 103.656,102.001 103.286 C 102.002 102.961,102.964 102.025,103.663 101.669 C 104.323 101.332,104.671 100.911,105.251 99.751 C 105.434 99.385,106.019 98.672,106.552 98.167 C 107.660 97.118,108.385 95.952,108.678 94.750 C 108.962 93.584,109.090 93.385,109.762 93.067 C 110.724 92.610,111.122 91.906,111.713 89.616 C 112.237 87.585,112.274 87.507,112.938 87.026 C 113.815 86.391,114.280 85.419,114.506 83.747 C 114.883 80.953,115.184 79.576,115.504 79.167 C 117.342 76.818,117.667 74.379,117.666 62.969 C 117.665 52.062,117.290 48.872,115.797 47.082 C 115.243 46.417,115.055 45.778,114.744 43.500 C 114.362 40.695,114.077 39.911,113.076 38.905 C 112.273 38.099,112.209 37.967,111.672 35.989 C 111.077 33.794,110.746 33.269,109.572 32.653 C 109.165 32.439,109.016 32.193,108.781 31.348 C 108.374 29.883,107.606 28.439,106.989 27.977 C 106.031 27.258,105.484 26.618,105.023 25.679 C 104.664 24.948,104.402 24.661,103.798 24.331 C 102.753 23.761,102.374 23.390,102.019 22.588 C 101.705 21.877,100.813 21.000,100.404 21.000 C 100.128 21.000,98.833 19.872,98.833 19.631 C 98.833 19.169,98.002 18.436,96.674 17.726 C 95.811 17.265,95.119 16.778,95.021 16.563 C 94.748 15.963,92.978 14.875,91.702 14.521 C 90.408 14.162,89.833 13.900,89.833 13.667 C 89.833 12.862,88.074 11.897,85.583 11.337 C 83.861 10.949,83.835 10.937,82.971 10.109 C 82.043 9.221,81.262 8.967,77.491 8.332 C 74.257 7.787,74.257 7.787,73.167 7.135 C 72.198 6.556,70.345 6.057,68.250 5.812 C 66.353 5.591,13.256 5.446,11.667 5.659 M171.841 5.695 C 169.659 6.006,168.915 6.912,169.091 9.039 C 169.227 10.681,169.528 11.407,170.272 11.891 C 170.934 12.320,171.432 13.460,171.597 14.917 C 171.813 16.837,172.274 17.962,173.211 18.861 L 174.062 19.676 174.516 22.255 C 175.023 25.129,175.371 26.016,176.416 27.091 C 177.207 27.905,177.378 28.403,177.746 30.959 C 178.049 33.070,178.505 34.171,179.372 34.891 C 180.079 35.479,180.413 36.460,180.853 39.250 C 181.141 41.072,181.611 42.146,182.512 43.039 C 183.377 43.895,183.370 43.874,183.907 47.230 C 184.224 49.210,184.631 50.194,185.503 51.085 C 186.222 51.819,186.724 53.046,186.906 54.509 C 187.241 57.206,187.576 58.063,188.696 59.083 L 189.428 59.750 189.810 62.000 C 190.352 65.196,190.715 66.224,191.624 67.132 C 192.560 68.068,192.749 68.531,193.001 70.500 C 193.322 72.995,193.715 74.059,194.656 74.973 C 195.510 75.802,195.785 76.613,196.330 79.911 C 196.595 81.515,197.071 82.528,197.925 83.306 C 198.728 84.037,198.685 83.913,199.178 86.833 C 199.585 89.244,200.083 90.484,200.980 91.321 C 201.755 92.044,202.071 92.936,202.408 95.365 C 202.698 97.450,203.121 98.459,204.031 99.238 C 204.749 99.852,204.882 100.244,205.412 103.306 C 205.796 105.519,206.228 106.565,207.100 107.385 C 207.958 108.192,208.069 108.489,208.421 110.895 C 208.758 113.198,209.166 114.277,210.083 115.298 C 210.551 115.819,211.002 116.587,211.335 117.431 C 212.664 120.804,211.090 120.519,228.096 120.463 L 242.108 120.417 242.724 120.000 C 243.159 119.706,243.505 119.238,243.901 118.410 C 244.256 117.666,244.677 117.071,245.051 116.786 C 245.922 116.122,246.440 114.891,246.925 112.333 C 247.538 109.102,247.588 108.952,248.160 108.613 C 249.121 108.046,249.780 106.386,250.082 103.771 C 250.249 102.331,250.584 101.539,251.394 100.673 C 252.296 99.709,252.685 98.673,253.150 96.000 C 253.583 93.507,253.701 93.175,254.302 92.771 C 255.259 92.128,255.818 90.789,256.157 88.333 C 256.417 86.450,256.748 85.571,257.557 84.616 C 258.699 83.269,259.056 82.232,259.439 79.167 C 259.593 77.932,259.895 77.264,260.492 76.839 C 261.149 76.371,261.927 74.709,262.173 73.250 C 262.710 70.059,262.958 69.329,263.744 68.637 C 264.675 67.818,265.084 66.761,265.398 64.368 C 265.671 62.281,265.959 61.486,266.655 60.901 C 267.549 60.148,268.124 58.671,268.585 55.935 L 269.003 53.454 269.880 52.602 C 270.857 51.653,271.193 50.838,271.498 48.681 C 271.799 46.555,272.135 45.668,272.997 44.723 C 273.920 43.711,274.364 42.483,274.733 39.917 C 275.034 37.830,275.160 37.505,275.887 36.950 C 276.640 36.376,277.270 35.063,277.503 33.583 C 277.985 30.516,278.364 29.337,279.043 28.800 C 280.077 27.980,280.485 26.910,280.832 24.101 C 281.053 22.312,281.322 21.623,282.089 20.878 C 283.102 19.894,284.333 16.009,284.333 13.794 C 284.333 13.722,284.703 13.436,285.155 13.158 C 286.446 12.364,286.764 11.559,286.696 9.259 C 286.625 6.873,286.045 5.844,284.620 5.580 C 283.454 5.364,257.275 5.574,256.750 5.804 C 255.636 6.291,255.015 7.236,254.582 9.105 C 254.063 11.342,253.964 11.584,253.256 12.342 C 252.312 13.355,251.937 14.440,251.503 17.421 C 251.088 20.266,250.940 20.756,250.384 21.120 C 249.418 21.753,248.998 22.894,248.407 26.500 C 247.878 29.726,247.932 29.562,247.169 30.268 C 246.240 31.128,245.890 32.124,245.326 35.519 C 244.761 38.919,244.844 38.674,243.984 39.451 C 243.193 40.166,242.731 41.350,242.411 43.487 C 241.867 47.109,241.699 47.665,240.912 48.430 C 240.092 49.227,239.662 50.366,239.344 52.587 C 238.908 55.623,238.543 56.795,237.834 57.436 C 237.028 58.164,236.580 59.302,236.320 61.281 C 235.943 64.147,235.532 65.505,234.799 66.304 C 233.852 67.335,233.527 68.207,233.158 70.709 C 232.687 73.893,232.467 74.599,231.693 75.402 C 230.619 76.516,230.298 77.440,230.009 80.250 C 229.924 81.075,229.713 82.200,229.540 82.750 L 229.225 83.750 228.638 82.583 C 228.315 81.942,227.960 81.050,227.850 80.603 C 227.601 79.588,227.140 78.672,226.521 77.963 C 225.943 77.300,225.586 76.105,225.339 74.000 C 225.030 71.367,224.723 70.530,223.661 69.417 C 222.914 68.635,222.636 67.718,222.250 64.777 C 221.932 62.351,221.507 61.179,220.643 60.349 C 219.878 59.614,219.641 58.891,219.245 56.083 C 218.861 53.356,218.433 52.126,217.563 51.256 C 216.768 50.461,216.419 49.306,216.007 46.109 C 215.748 44.105,215.310 43.001,214.470 42.243 C 213.723 41.568,213.413 40.573,213.001 37.527 C 212.699 35.293,212.260 34.104,211.411 33.217 C 210.527 32.295,210.630 32.607,210.008 28.956 C 209.459 25.734,209.048 24.626,208.164 23.971 C 207.564 23.528,207.474 23.226,206.917 19.771 C 206.438 16.798,205.981 15.590,205.077 14.901 C 204.393 14.379,204.402 14.406,204.003 11.687 C 203.488 8.182,202.404 6.562,200.091 5.848 C 198.859 5.467,174.362 5.335,171.841 5.695 M317.833 5.823 C 317.019 6.254,316.789 6.559,316.115 8.107 C 315.736 8.975,315.258 9.737,314.785 10.223 C 313.784 11.252,313.555 11.801,312.947 14.618 C 312.446 16.945,312.404 17.054,311.864 17.420 C 310.785 18.153,310.173 19.539,309.914 21.833 C 309.755 23.248,309.398 24.059,308.680 24.636 C 307.819 25.328,307.406 26.243,306.930 28.516 C 306.415 30.975,306.303 31.241,305.350 32.248 C 304.430 33.220,304.176 33.884,303.655 36.667 L 303.297 38.583 302.411 39.377 C 301.394 40.288,301.127 40.921,300.775 43.250 C 300.491 45.133,300.199 45.821,299.367 46.573 C 298.586 47.278,298.066 48.403,297.745 50.082 C 297.195 52.959,297.024 53.409,296.236 54.068 C 295.147 54.978,294.875 55.683,294.329 58.997 C 294.131 60.196,294.090 60.274,293.227 61.065 C 292.239 61.969,291.806 62.988,291.587 64.923 C 291.403 66.542,291.038 67.447,290.258 68.216 C 289.274 69.188,288.904 70.002,288.413 72.281 C 288.180 73.364,287.944 74.462,287.888 74.721 C 287.824 75.019,287.550 75.349,287.145 75.617 C 286.308 76.171,285.754 77.332,285.410 79.250 C 284.937 81.893,284.855 82.109,284.084 82.741 C 283.189 83.474,282.738 84.433,282.417 86.286 C 282.046 88.420,281.749 89.175,280.943 90.029 C 279.986 91.042,279.616 91.891,279.178 94.083 C 278.623 96.857,278.555 97.045,277.961 97.417 C 276.910 98.075,276.497 98.993,276.087 101.583 C 275.779 103.529,275.573 104.024,274.881 104.478 C 274.146 104.959,273.420 106.476,273.167 108.058 C 272.817 110.251,272.424 111.172,271.414 112.169 C 270.120 113.447,269.917 114.074,269.917 116.780 L 269.917 118.978 270.417 119.509 C 271.387 120.541,270.798 120.500,284.710 120.500 C 299.773 120.500,299.804 120.496,301.251 118.538 C 301.836 117.747,301.975 117.351,302.643 114.586 C 302.966 113.252,303.086 113.007,303.756 112.327 C 304.676 111.393,305.049 110.451,305.406 108.167 C 305.812 105.566,305.911 105.294,306.666 104.688 C 307.034 104.392,307.493 103.841,307.685 103.463 C 307.878 103.086,308.306 102.414,308.637 101.971 L 309.240 101.164 330.911 101.213 L 352.583 101.263 353.583 101.622 C 354.133 101.819,354.772 102.019,355.002 102.067 C 355.521 102.174,356.000 102.953,356.001 103.692 C 356.005 106.144,356.768 108.561,357.922 109.783 C 358.708 110.615,359.024 111.521,359.333 113.833 C 359.580 115.681,360.110 116.848,360.977 117.451 C 361.345 117.707,361.835 118.258,362.066 118.676 C 363.139 120.617,362.149 120.502,377.620 120.488 C 393.493 120.473,392.921 120.525,393.958 119.002 C 395.026 117.433,393.958 113.167,392.498 113.167 C 392.138 113.167,391.806 112.271,391.564 110.645 C 391.200 108.200,390.411 106.665,389.333 106.306 C 389.224 106.269,388.909 105.118,388.634 103.745 C 388.078 100.977,387.595 99.796,386.672 98.942 C 385.930 98.256,385.612 97.427,385.263 95.269 C 384.956 93.373,384.390 92.166,383.574 91.661 C 382.915 91.254,382.760 90.862,382.422 88.750 C 382.035 86.334,381.769 85.657,380.764 84.530 C 379.835 83.489,379.554 82.736,379.009 79.833 C 378.755 78.479,378.086 77.224,377.376 76.767 C 376.744 76.361,376.505 75.679,376.089 73.096 C 375.781 71.183,375.224 69.999,374.391 69.484 C 373.771 69.101,373.701 68.904,373.065 65.778 C 372.616 63.569,372.069 62.363,371.221 61.717 C 370.587 61.233,370.247 60.382,370.003 58.667 C 369.677 56.379,369.403 55.705,368.409 54.750 L 367.510 53.886 367.076 51.651 C 366.558 48.985,366.224 48.163,365.254 47.167 C 364.444 46.335,364.023 45.217,363.683 43.000 C 363.442 41.421,362.811 40.096,362.071 39.615 C 361.382 39.167,361.248 38.843,360.915 36.833 C 360.474 34.162,360.243 33.557,359.267 32.517 C 358.347 31.537,357.854 30.292,357.580 28.257 C 357.396 26.890,356.851 25.675,356.069 24.894 C 355.095 23.919,355.046 23.803,354.663 21.550 C 354.260 19.187,353.736 17.994,352.838 17.400 C 352.158 16.950,352.248 17.206,351.509 13.625 C 351.118 11.735,350.713 10.859,349.793 9.913 C 349.428 9.538,348.781 8.560,348.356 7.741 C 347.728 6.531,347.458 6.182,346.917 5.879 L 346.250 5.505 332.333 5.510 C 319.114 5.515,318.387 5.530,317.833 5.823 M64.660 6.922 C 65.809 7.063,67.425 7.326,68.250 7.508 C 69.075 7.689,70.912 8.069,72.333 8.350 C 79.003 9.674,78.800 9.619,80.917 10.670 C 82.017 11.216,83.517 11.823,84.250 12.019 C 86.009 12.489,87.038 12.971,88.244 13.891 C 88.791 14.308,89.899 14.923,90.707 15.258 C 91.696 15.668,92.461 16.124,93.046 16.656 C 93.525 17.089,94.649 17.880,95.545 18.411 C 96.611 19.045,97.411 19.662,97.861 20.199 C 98.239 20.651,98.986 21.318,99.523 21.682 C 100.059 22.046,100.796 22.748,101.160 23.241 C 101.525 23.735,102.245 24.501,102.761 24.944 C 103.277 25.387,104.017 26.240,104.406 26.838 C 104.794 27.437,105.549 28.412,106.082 29.005 C 106.709 29.702,107.303 30.614,107.762 31.583 C 108.243 32.600,108.722 33.325,109.249 33.833 C 110.217 34.767,110.406 35.126,110.897 36.960 C 111.337 38.603,111.726 39.448,112.477 40.390 C 113.177 41.268,113.604 42.494,114.011 44.796 C 114.431 47.174,114.899 49.064,115.348 50.204 C 117.251 55.031,117.198 72.233,115.269 75.963 C 114.948 76.584,114.262 79.306,113.917 81.333 C 113.494 83.814,113.233 84.521,112.273 85.788 C 111.548 86.745,111.312 87.235,110.954 88.526 C 110.326 90.789,110.258 90.928,109.269 91.972 C 108.698 92.575,108.160 93.383,107.783 94.205 C 107.431 94.972,106.858 95.850,106.370 96.372 C 105.919 96.855,105.094 97.925,104.537 98.750 C 103.980 99.575,103.096 100.619,102.574 101.071 C 102.052 101.522,101.362 102.257,101.040 102.704 C 100.719 103.151,100.013 103.818,99.471 104.186 C 98.929 104.555,98.009 105.319,97.428 105.886 C 96.847 106.453,95.744 107.285,94.977 107.736 C 94.211 108.187,93.246 108.866,92.833 109.246 C 92.353 109.687,91.538 110.162,90.577 110.561 C 89.749 110.904,88.624 111.523,88.077 111.937 C 86.739 112.949,86.248 113.183,83.943 113.903 C 82.857 114.242,81.245 114.885,80.359 115.332 C 78.653 116.193,77.678 116.452,73.141 117.249 C 71.797 117.484,69.772 117.906,68.641 118.186 C 64.194 119.285,66.174 119.212,38.667 119.287 C 10.993 119.363,11.282 119.372,10.505 118.385 C 9.857 117.561,9.431 115.863,9.510 114.417 C 9.606 112.675,9.606 13.325,9.510 11.583 C 9.366 8.941,10.220 7.348,12.000 6.943 C 13.660 6.565,61.585 6.546,64.660 6.922 M199.698 7.167 C 202.350 9.044,202.827 9.756,203.161 12.333 C 203.415 14.295,203.832 15.573,204.670 16.963 C 205.463 18.277,205.872 19.509,206.327 21.955 C 206.699 23.955,207.025 24.859,207.905 26.326 C 208.572 27.441,208.867 28.346,209.336 30.719 C 209.783 32.981,210.161 34.087,210.904 35.296 C 211.651 36.512,211.888 37.203,212.325 39.438 C 212.761 41.666,213.166 42.849,213.927 44.112 C 214.613 45.252,214.993 46.409,215.496 48.895 C 215.953 51.154,216.181 51.805,216.993 53.167 C 217.804 54.527,218.094 55.399,218.585 57.950 C 218.994 60.072,219.353 61.065,220.170 62.339 C 220.850 63.399,221.118 64.228,221.666 66.983 C 222.006 68.694,222.296 69.674,222.676 70.400 C 223.996 72.920,224.161 73.347,224.578 75.333 C 225.660 80.487,227.928 85.333,229.257 85.333 C 229.701 85.333,230.163 84.284,230.587 82.315 C 231.268 79.146,231.472 78.503,232.171 77.333 C 233.090 75.795,233.256 75.332,233.755 72.908 C 234.266 70.428,234.597 69.473,235.396 68.176 C 236.039 67.133,236.475 65.763,237.019 63.083 C 237.286 61.766,237.576 60.898,238.050 60.000 C 238.412 59.313,238.857 58.457,239.037 58.099 C 239.218 57.741,239.551 56.578,239.777 55.516 C 240.358 52.787,240.758 51.577,241.492 50.333 C 242.260 49.032,242.549 48.161,243.006 45.771 C 243.409 43.666,243.842 42.425,244.580 41.254 C 245.362 40.016,245.652 39.157,246.100 36.752 C 246.463 34.809,246.618 34.358,247.591 32.417 C 248.534 30.538,248.733 29.973,249.091 28.167 C 249.609 25.547,249.900 24.653,250.609 23.491 C 251.417 22.167,251.812 21.028,252.255 18.750 C 252.730 16.311,252.953 15.670,253.830 14.216 C 254.206 13.593,254.628 12.671,254.767 12.167 C 256.413 6.209,254.937 6.697,271.333 6.684 C 286.532 6.672,285.500 6.480,285.500 9.326 L 285.500 10.948 284.668 11.898 C 283.590 13.131,283.571 13.170,283.161 15.105 C 282.719 17.191,282.405 18.033,281.784 18.802 C 281.003 19.770,280.552 20.914,280.019 23.277 C 279.494 25.605,279.284 26.134,278.402 27.347 C 277.688 28.327,277.562 28.666,276.993 31.111 C 276.518 33.151,276.170 34.021,275.335 35.250 C 274.745 36.119,274.245 37.487,273.841 39.341 C 273.460 41.084,273.106 41.945,272.270 43.161 C 271.664 44.042,271.275 45.151,270.750 47.500 C 270.422 48.968,269.915 50.160,269.195 51.154 C 268.524 52.080,268.083 53.279,267.741 55.109 C 267.382 57.029,267.005 57.994,266.199 59.053 C 265.475 60.004,265.169 60.817,264.668 63.119 C 264.230 65.128,263.772 66.323,263.139 67.110 C 262.430 67.991,262.204 68.572,261.567 71.151 C 261.182 72.711,260.863 73.617,260.509 74.151 C 259.552 75.598,259.010 76.921,258.508 79.043 C 258.037 81.031,257.399 82.670,257.000 82.917 C 256.602 83.163,255.956 84.814,255.483 86.797 C 254.942 89.065,254.554 90.095,253.936 90.907 C 253.212 91.858,252.817 92.850,252.391 94.785 C 251.908 96.984,251.598 97.790,250.775 98.986 C 250.144 99.904,249.703 101.116,249.179 103.370 C 248.761 105.170,248.494 105.820,247.757 106.824 C 246.958 107.913,246.603 108.819,246.253 110.667 C 245.860 112.738,245.476 113.749,244.670 114.829 C 244.306 115.317,243.668 116.375,243.252 117.181 C 242.001 119.602,243.850 119.350,227.735 119.296 L 213.860 119.250 213.439 118.854 C 213.207 118.636,212.623 117.557,212.141 116.456 C 211.659 115.355,211.063 114.176,210.816 113.836 C 209.918 112.596,209.579 111.705,209.079 109.264 C 208.731 107.567,208.430 106.803,207.649 105.638 C 206.789 104.355,206.553 103.738,206.074 101.522 C 205.637 99.504,205.231 98.419,204.603 97.593 C 203.909 96.680,203.658 96.019,202.993 93.365 C 202.495 91.379,202.218 90.590,201.842 90.083 C 200.735 88.592,200.487 88.022,199.989 85.812 C 199.456 83.449,199.022 82.321,198.218 81.211 C 197.558 80.301,197.261 79.467,196.758 77.120 C 196.316 75.059,196.079 74.458,195.333 73.500 C 194.593 72.549,194.358 71.958,193.829 69.715 C 193.217 67.115,192.989 66.509,192.184 65.333 C 191.364 64.138,191.114 63.464,190.667 61.250 C 190.298 59.424,189.818 58.229,189.047 57.218 C 188.493 56.491,188.125 55.463,187.507 52.917 C 187.061 51.078,186.867 50.581,186.227 49.631 C 185.307 48.266,184.984 47.430,184.508 45.184 C 184.112 43.314,183.600 41.994,182.932 41.118 C 182.267 40.247,181.883 39.226,181.428 37.119 C 180.986 35.077,180.679 34.322,179.761 33.027 C 179.151 32.166,178.802 31.208,178.417 29.333 C 178.025 27.426,177.533 26.086,176.967 25.385 C 176.180 24.409,175.719 23.254,175.327 21.269 C 174.944 19.331,174.542 18.222,173.929 17.417 C 173.298 16.588,172.876 15.633,172.413 13.987 C 172.171 13.127,171.798 12.046,171.584 11.586 C 171.370 11.126,171.113 10.225,171.014 9.583 C 170.915 8.942,170.789 8.254,170.735 8.056 C 170.619 7.636,170.916 7.436,172.333 6.978 C 173.183 6.703,174.188 6.684,186.180 6.716 L 199.109 6.750 199.698 7.167 M346.617 7.208 C 346.901 7.506,347.487 8.462,347.919 9.333 C 348.351 10.204,348.948 11.217,349.245 11.583 C 350.079 12.612,350.417 13.418,350.907 15.542 C 351.254 17.045,351.489 17.685,351.918 18.292 C 353.089 19.948,353.335 20.483,353.898 22.586 C 354.566 25.084,354.833 25.775,355.388 26.438 C 356.060 27.243,356.496 28.271,357.028 30.304 C 357.589 32.452,357.818 32.988,358.522 33.796 C 359.256 34.639,359.600 35.441,359.982 37.204 C 360.400 39.138,360.727 40.021,361.354 40.917 C 362.244 42.189,362.668 43.163,363.149 45.040 C 363.740 47.349,363.982 47.944,364.627 48.680 C 365.427 49.591,365.799 50.462,366.241 52.458 C 366.690 54.491,366.885 54.956,367.862 56.326 C 368.273 56.902,368.665 57.758,368.932 58.660 C 369.992 62.241,370.183 62.726,370.921 63.708 C 371.692 64.734,372.064 65.736,372.593 68.218 C 372.785 69.114,373.043 69.762,373.424 70.301 C 374.592 71.953,374.853 72.514,375.344 74.435 C 375.914 76.667,376.412 77.868,377.148 78.788 C 377.816 79.622,378.044 80.206,378.658 82.658 C 379.062 84.272,379.300 84.887,379.749 85.485 C 380.832 86.927,381.133 87.586,381.568 89.468 C 382.032 91.477,382.373 92.289,383.272 93.524 C 383.921 94.415,384.163 95.044,384.747 97.354 C 385.225 99.246,385.448 99.744,386.339 100.917 C 387.112 101.933,387.373 102.605,387.822 104.719 C 388.205 106.523,388.446 107.091,389.246 108.083 C 390.003 109.021,390.269 109.594,390.676 111.162 C 391.160 113.032,391.408 113.573,392.151 114.386 C 392.781 115.075,392.790 115.104,392.871 116.701 C 393.011 119.478,393.870 119.333,377.217 119.333 C 362.555 119.333,364.041 119.497,362.932 117.762 C 362.625 117.282,362.035 116.509,361.622 116.044 C 360.797 115.115,360.397 114.103,359.852 111.567 C 359.447 109.684,359.186 109.054,358.234 107.661 C 357.573 106.693,357.433 106.324,357.091 104.640 C 356.483 101.645,356.277 101.346,353.960 100.110 L 352.503 99.333 330.758 99.333 L 309.012 99.333 307.714 101.011 C 305.228 104.226,305.291 104.101,304.585 107.226 C 304.154 109.133,303.980 109.539,302.939 111.061 C 302.401 111.848,302.169 112.410,301.934 113.500 C 301.212 116.849,300.358 118.004,297.823 119.064 C 296.869 119.462,272.382 119.513,271.779 119.117 C 270.289 118.141,270.475 114.802,272.103 113.287 C 273.074 112.383,273.203 112.117,273.735 109.939 C 274.218 107.963,274.425 107.475,275.274 106.308 C 276.040 105.254,276.398 104.391,276.914 102.348 C 277.405 100.407,277.634 99.881,278.413 98.917 C 279.220 97.917,279.419 97.439,279.978 95.175 C 280.386 93.519,280.616 92.923,281.120 92.214 C 282.230 90.649,282.465 90.143,282.915 88.346 C 283.439 86.250,283.758 85.487,284.529 84.476 C 285.217 83.576,285.695 82.419,286.173 80.506 C 286.630 78.677,286.874 78.114,287.651 77.092 C 288.554 75.905,288.664 75.648,289.115 73.696 C 289.521 71.935,290.083 70.582,290.580 70.169 C 291.151 69.695,291.673 68.502,292.241 66.369 C 292.861 64.038,293.128 63.385,293.781 62.603 C 294.449 61.803,294.828 60.902,295.333 58.917 C 295.833 56.951,296.273 55.896,296.760 55.491 C 297.377 54.980,297.850 53.928,298.322 52.017 C 298.842 49.917,299.207 49.041,299.911 48.204 C 300.534 47.464,301.106 46.114,301.482 44.496 C 301.896 42.720,302.325 41.709,303.094 40.703 C 303.865 39.695,304.095 39.133,304.590 37.039 C 305.040 35.133,305.287 34.565,306.095 33.566 C 306.838 32.649,307.086 32.061,307.590 30.017 C 308.050 28.156,308.431 27.272,309.192 26.305 C 309.867 25.448,310.241 24.528,310.759 22.458 C 311.195 20.717,311.397 20.297,312.778 18.258 C 313.161 17.692,313.430 16.943,313.756 15.531 C 314.263 13.340,314.383 13.056,315.292 11.903 C 315.647 11.452,316.316 10.296,316.778 9.333 C 317.656 7.506,318.134 6.914,318.833 6.787 C 319.063 6.746,325.292 6.702,332.676 6.689 L 346.101 6.667 346.617 7.208 M40.815 31.214 C 38.958 32.132,39.069 29.914,39.167 64.362 L 39.250 93.640 39.634 94.048 C 39.844 94.273,40.369 94.639,40.800 94.863 L 41.583 95.270 52.167 95.163 C 64.721 95.036,65.009 95.007,67.790 93.574 C 68.729 93.091,70.116 92.493,70.873 92.245 C 72.458 91.727,73.407 91.222,74.000 90.581 C 74.229 90.333,74.829 89.866,75.333 89.542 C 76.575 88.746,79.594 85.633,80.107 84.619 C 80.335 84.170,80.995 83.336,81.574 82.765 C 82.292 82.057,82.666 81.546,82.749 81.156 C 83.103 79.502,83.768 77.804,84.507 76.667 C 87.301 72.366,87.295 53.746,84.498 49.998 C 84.052 49.400,83.624 48.445,83.070 46.812 C 82.302 44.548,82.253 44.457,81.399 43.728 C 80.809 43.224,80.339 42.616,79.970 41.882 C 79.627 41.198,79.146 40.560,78.692 40.185 C 77.742 39.400,77.367 39.025,76.695 38.184 C 76.341 37.742,75.725 37.282,74.996 36.914 C 74.366 36.597,73.491 35.987,73.050 35.558 C 72.175 34.705,70.931 34.072,69.000 33.499 C 68.313 33.295,67.249 32.876,66.637 32.568 C 63.907 31.194,62.091 31.016,50.250 30.959 C 42.058 30.920,41.373 30.938,40.815 31.214 M59.468 32.003 C 61.630 32.168,61.727 32.193,63.384 32.988 C 64.976 33.752,67.620 34.500,68.731 34.500 C 69.411 34.500,70.706 35.231,71.614 36.127 C 72.619 37.119,73.206 37.457,74.583 37.838 C 75.544 38.104,75.600 38.150,76.021 39.016 C 76.533 40.071,76.800 40.333,77.900 40.859 C 78.672 41.229,78.735 41.310,79.074 42.363 C 79.408 43.402,80.088 44.338,81.352 45.500 C 81.728 45.845,82.104 46.893,82.493 48.674 C 82.848 50.301,83.674 52.054,84.269 52.444 C 85.926 53.530,85.924 72.492,84.265 74.333 C 83.312 75.392,82.859 76.365,82.418 78.298 C 81.662 81.611,81.733 81.439,80.961 81.864 C 80.183 82.294,79.582 83.079,79.337 83.984 C 79.100 84.859,78.722 85.314,77.985 85.609 C 77.314 85.877,76.500 86.685,76.500 87.083 C 76.500 87.556,75.641 88.315,74.787 88.597 C 73.608 88.986,73.231 89.257,72.755 90.056 C 72.321 90.784,71.928 90.938,68.417 91.767 C 67.269 92.037,65.353 92.896,64.512 93.517 C 63.735 94.090,61.914 94.196,51.500 94.271 L 41.417 94.345 41.000 93.987 L 40.583 93.629 40.530 64.440 C 40.476 34.096,40.505 32.538,41.145 32.051 C 41.490 31.788,56.146 31.750,59.468 32.003 M329.990 40.458 C 329.419 41.357,329.414 41.376,329.164 43.417 C 328.978 44.945,328.433 46.445,327.833 47.083 C 327.292 47.660,326.686 49.203,326.259 51.095 C 325.705 53.549,325.496 54.093,324.606 55.393 C 324.187 56.004,323.770 56.784,323.678 57.127 C 323.586 57.470,323.285 58.647,323.008 59.743 C 322.678 61.053,322.334 61.995,322.005 62.493 C 321.051 63.935,320.523 65.206,320.076 67.140 C 319.573 69.310,319.302 69.940,318.410 71.008 C 317.683 71.879,317.566 72.156,317.171 73.947 L 316.871 75.312 317.256 75.878 C 318.020 77.002,317.143 76.935,330.917 76.914 L 343.417 76.894 344.250 76.522 C 344.708 76.317,345.283 75.958,345.526 75.725 L 345.969 75.300 345.660 74.775 C 345.490 74.486,345.152 73.537,344.908 72.667 C 343.975 69.336,343.776 68.781,343.213 67.945 C 342.131 66.338,342.071 66.179,341.339 62.974 C 340.823 60.711,340.620 60.212,339.755 59.079 C 339.104 58.226,338.798 57.366,338.332 55.083 C 337.993 53.427,337.446 52.102,336.507 50.667 C 336.006 49.900,335.689 48.877,334.910 45.500 C 333.887 41.072,331.290 38.411,329.990 40.458 M131.885 41.396 C 130.950 41.874,130.024 42.411,129.826 42.590 C 128.933 43.398,128.987 40.941,128.987 80.379 C 128.987 121.211,128.893 118.079,130.161 119.225 C 131.509 120.443,131.172 120.417,145.667 120.417 C 159.896 120.417,159.141 120.470,159.985 119.398 C 160.778 118.390,160.750 119.810,160.750 80.578 C 160.750 38.520,160.913 42.848,159.280 41.471 C 158.135 40.506,158.292 40.516,144.917 40.523 L 133.583 40.529 131.885 41.396 M331.349 41.178 C 331.616 41.368,331.833 41.623,331.833 41.747 C 331.833 42.299,332.608 43.909,333.195 44.575 C 333.989 45.478,334.281 46.275,334.600 48.417 C 335.033 51.324,335.411 52.295,336.426 53.110 C 337.028 53.593,337.042 53.634,337.576 56.341 C 338.157 59.283,338.594 60.397,339.501 61.250 C 340.203 61.909,340.291 62.168,340.757 64.952 C 341.189 67.534,341.493 68.305,342.513 69.412 C 343.253 70.214,343.563 71.056,343.927 73.250 C 344.064 74.075,344.214 74.874,344.261 75.024 C 344.317 75.208,344.157 75.415,343.778 75.649 C 342.908 76.187,318.570 76.204,318.084 75.668 C 317.563 75.092,318.142 73.371,319.269 72.146 C 320.238 71.092,320.460 70.521,320.915 67.917 C 321.059 67.092,321.213 66.252,321.256 66.050 C 321.300 65.848,321.666 65.373,322.070 64.995 C 322.993 64.130,323.443 63.090,323.745 61.127 C 324.112 58.734,324.434 57.859,325.278 56.955 C 326.335 55.822,326.765 54.568,327.087 51.682 C 327.239 50.315,327.499 49.718,328.245 49.022 C 329.375 47.968,329.900 46.380,330.100 43.417 C 330.260 41.055,330.520 40.588,331.349 41.178 M158.921 42.833 C 159.255 43.154,159.599 43.547,159.685 43.707 C 159.784 43.887,159.844 57.738,159.845 80.325 L 159.847 116.653 159.465 117.603 C 158.745 119.394,159.957 119.242,145.863 119.301 L 133.583 119.352 132.621 118.893 C 130.827 118.039,130.061 116.148,130.417 113.455 C 130.777 110.729,130.781 49.012,130.421 46.333 C 130.113 44.040,130.379 43.643,132.944 42.566 L 133.917 42.158 146.116 42.204 L 158.315 42.250 158.921 42.833 " stroke="none" fill="#7c7c7c" fill-rule="evenodd"></path><path id="path4" d="M12.000 6.943 C 10.220 7.348,9.366 8.941,9.510 11.583 C 9.606 13.325,9.606 112.675,9.510 114.417 C 9.431 115.863,9.857 117.561,10.505 118.385 C 11.282 119.372,10.993 119.363,38.667 119.287 C 66.174 119.212,64.194 119.285,68.641 118.186 C 69.772 117.906,71.797 117.484,73.141 117.249 C 77.678 116.452,78.653 116.193,80.359 115.332 C 81.245 114.885,82.857 114.242,83.943 113.903 C 86.248 113.183,86.739 112.949,88.077 111.937 C 88.624 111.523,89.749 110.904,90.577 110.561 C 91.538 110.162,92.353 109.687,92.833 109.246 C 93.246 108.866,94.211 108.187,94.977 107.736 C 95.744 107.285,96.847 106.453,97.428 105.886 C 98.009 105.319,98.929 104.555,99.471 104.186 C 100.013 103.818,100.719 103.151,101.040 102.704 C 101.362 102.257,102.052 101.522,102.574 101.071 C 103.096 100.619,103.980 99.575,104.537 98.750 C 105.094 97.925,105.919 96.855,106.370 96.372 C 106.858 95.850,107.431 94.972,107.783 94.205 C 108.160 93.383,108.698 92.575,109.269 91.972 C 110.258 90.928,110.326 90.789,110.954 88.526 C 111.312 87.235,111.548 86.745,112.273 85.788 C 113.233 84.521,113.494 83.814,113.917 81.333 C 114.262 79.306,114.948 76.584,115.269 75.963 C 117.198 72.233,117.251 55.031,115.348 50.204 C 114.899 49.064,114.431 47.174,114.011 44.796 C 113.604 42.494,113.177 41.268,112.477 40.390 C 111.726 39.448,111.337 38.603,110.897 36.960 C 110.406 35.126,110.217 34.767,109.249 33.833 C 108.722 33.325,108.243 32.600,107.762 31.583 C 107.303 30.614,106.709 29.702,106.082 29.005 C 105.549 28.412,104.794 27.437,104.406 26.838 C 104.017 26.240,103.277 25.387,102.761 24.944 C 102.245 24.501,101.525 23.735,101.160 23.241 C 100.796 22.748,100.059 22.046,99.523 21.682 C 98.986 21.318,98.239 20.651,97.861 20.199 C 97.411 19.662,96.611 19.045,95.545 18.411 C 94.649 17.880,93.525 17.089,93.046 16.656 C 92.461 16.124,91.696 15.668,90.707 15.258 C 89.899 14.923,88.791 14.308,88.244 13.891 C 87.038 12.971,86.009 12.489,84.250 12.019 C 83.517 11.823,82.017 11.216,80.917 10.670 C 78.800 9.619,79.003 9.674,72.333 8.350 C 70.912 8.069,69.075 7.689,68.250 7.508 C 64.435 6.668,64.335 6.666,37.827 6.681 C 16.622 6.694,12.928 6.731,12.000 6.943 M172.333 6.978 C 170.916 7.436,170.619 7.636,170.735 8.056 C 170.789 8.254,170.915 8.942,171.014 9.583 C 171.113 10.225,171.370 11.126,171.584 11.586 C 171.798 12.046,172.171 13.127,172.413 13.987 C 172.876 15.633,173.298 16.588,173.929 17.417 C 174.542 18.222,174.944 19.331,175.327 21.269 C 175.719 23.254,176.180 24.409,176.967 25.385 C 177.533 26.086,178.025 27.426,178.417 29.333 C 178.802 31.208,179.151 32.166,179.761 33.027 C 180.679 34.322,180.986 35.077,181.428 37.119 C 181.883 39.226,182.267 40.247,182.932 41.118 C 183.600 41.994,184.112 43.314,184.508 45.184 C 184.984 47.430,185.307 48.266,186.227 49.631 C 186.867 50.581,187.061 51.078,187.507 52.917 C 188.125 55.463,188.493 56.491,189.047 57.218 C 189.818 58.229,190.298 59.424,190.667 61.250 C 191.114 63.464,191.364 64.138,192.184 65.333 C 192.989 66.509,193.217 67.115,193.829 69.715 C 194.358 71.958,194.593 72.549,195.333 73.500 C 196.079 74.458,196.316 75.059,196.758 77.120 C 197.261 79.467,197.558 80.301,198.218 81.211 C 199.022 82.321,199.456 83.449,199.989 85.812 C 200.487 88.022,200.735 88.592,201.842 90.083 C 202.218 90.590,202.495 91.379,202.993 93.365 C 203.658 96.019,203.909 96.680,204.603 97.593 C 205.231 98.419,205.637 99.504,206.074 101.522 C 206.553 103.738,206.789 104.355,207.649 105.638 C 208.430 106.803,208.731 107.567,209.079 109.264 C 209.579 111.705,209.918 112.596,210.816 113.836 C 211.063 114.176,211.659 115.355,212.141 116.456 C 212.623 117.557,213.207 118.636,213.439 118.854 L 213.860 119.250 227.735 119.296 C 243.850 119.350,242.001 119.602,243.252 117.181 C 243.668 116.375,244.306 115.317,244.670 114.829 C 245.476 113.749,245.860 112.738,246.253 110.667 C 246.603 108.819,246.958 107.913,247.757 106.824 C 248.494 105.820,248.761 105.170,249.179 103.370 C 249.703 101.116,250.144 99.904,250.775 98.986 C 251.598 97.790,251.908 96.984,252.391 94.785 C 252.817 92.850,253.212 91.858,253.936 90.907 C 254.554 90.095,254.942 89.065,255.483 86.797 C 255.956 84.814,256.602 83.163,257.000 82.917 C 257.399 82.670,258.037 81.031,258.508 79.043 C 259.010 76.921,259.552 75.598,260.509 74.151 C 260.863 73.617,261.182 72.711,261.567 71.151 C 262.204 68.572,262.430 67.991,263.139 67.110 C 263.772 66.323,264.230 65.128,264.668 63.119 C 265.169 60.817,265.475 60.004,266.199 59.053 C 267.005 57.994,267.382 57.029,267.741 55.109 C 268.083 53.279,268.524 52.080,269.195 51.154 C 269.915 50.160,270.422 48.968,270.750 47.500 C 271.275 45.151,271.664 44.042,272.270 43.161 C 273.106 41.945,273.460 41.084,273.841 39.341 C 274.245 37.487,274.745 36.119,275.335 35.250 C 276.170 34.021,276.518 33.151,276.993 31.111 C 277.562 28.666,277.688 28.327,278.402 27.347 C 279.284 26.134,279.494 25.605,280.019 23.277 C 280.552 20.914,281.003 19.770,281.784 18.802 C 282.405 18.033,282.719 17.191,283.161 15.105 C 283.571 13.170,283.590 13.131,284.668 11.898 L 285.500 10.948 285.500 9.326 C 285.500 6.480,286.532 6.672,271.333 6.684 C 254.937 6.697,256.413 6.209,254.767 12.167 C 254.628 12.671,254.206 13.593,253.830 14.216 C 252.953 15.670,252.730 16.311,252.255 18.750 C 251.812 21.028,251.417 22.167,250.609 23.491 C 249.900 24.653,249.609 25.547,249.091 28.167 C 248.733 29.973,248.534 30.538,247.591 32.417 C 246.618 34.358,246.463 34.809,246.100 36.752 C 245.652 39.157,245.362 40.016,244.580 41.254 C 243.842 42.425,243.409 43.666,243.006 45.771 C 242.549 48.161,242.260 49.032,241.492 50.333 C 240.758 51.577,240.358 52.787,239.777 55.516 C 239.551 56.578,239.218 57.741,239.037 58.099 C 238.857 58.457,238.412 59.313,238.050 60.000 C 237.576 60.898,237.286 61.766,237.019 63.083 C 236.475 65.763,236.039 67.133,235.396 68.176 C 234.597 69.473,234.266 70.428,233.755 72.908 C 233.256 75.332,233.090 75.795,232.171 77.333 C 231.472 78.503,231.268 79.146,230.587 82.315 C 230.163 84.284,229.701 85.333,229.257 85.333 C 227.928 85.333,225.660 80.487,224.578 75.333 C 224.161 73.347,223.996 72.920,222.676 70.400 C 222.296 69.674,222.006 68.694,221.666 66.983 C 221.118 64.228,220.850 63.399,220.170 62.339 C 219.353 61.065,218.994 60.072,218.585 57.950 C 218.094 55.399,217.804 54.527,216.993 53.167 C 216.181 51.805,215.953 51.154,215.496 48.895 C 214.993 46.409,214.613 45.252,213.927 44.112 C 213.166 42.849,212.761 41.666,212.325 39.438 C 211.888 37.203,211.651 36.512,210.904 35.296 C 210.161 34.087,209.783 32.981,209.336 30.719 C 208.867 28.346,208.572 27.441,207.905 26.326 C 207.025 24.859,206.699 23.955,206.327 21.955 C 205.872 19.509,205.463 18.277,204.670 16.963 C 203.832 15.573,203.415 14.295,203.161 12.333 C 202.827 9.756,202.350 9.044,199.698 7.167 L 199.109 6.750 186.180 6.716 C 174.188 6.684,173.183 6.703,172.333 6.978 M318.833 6.787 C 318.134 6.914,317.656 7.506,316.778 9.333 C 316.316 10.296,315.647 11.452,315.292 11.903 C 314.383 13.056,314.263 13.340,313.756 15.531 C 313.430 16.943,313.161 17.692,312.778 18.258 C 311.397 20.297,311.195 20.717,310.759 22.458 C 310.241 24.528,309.867 25.448,309.192 26.305 C 308.431 27.272,308.050 28.156,307.590 30.017 C 307.086 32.061,306.838 32.649,306.095 33.566 C 305.287 34.565,305.040 35.133,304.590 37.039 C 304.095 39.133,303.865 39.695,303.094 40.703 C 302.325 41.709,301.896 42.720,301.482 44.496 C 301.106 46.114,300.534 47.464,299.911 48.204 C 299.207 49.041,298.842 49.917,298.322 52.017 C 297.850 53.928,297.377 54.980,296.760 55.491 C 296.273 55.896,295.833 56.951,295.333 58.917 C 294.828 60.902,294.449 61.803,293.781 62.603 C 293.128 63.385,292.861 64.038,292.241 66.369 C 291.673 68.502,291.151 69.695,290.580 70.169 C 290.083 70.582,289.521 71.935,289.115 73.696 C 288.664 75.648,288.554 75.905,287.651 77.092 C 286.874 78.114,286.630 78.677,286.173 80.506 C 285.695 82.419,285.217 83.576,284.529 84.476 C 283.758 85.487,283.439 86.250,282.915 88.346 C 282.465 90.143,282.230 90.649,281.120 92.214 C 280.616 92.923,280.386 93.519,279.978 95.175 C 279.419 97.439,279.220 97.917,278.413 98.917 C 277.634 99.881,277.405 100.407,276.914 102.348 C 276.398 104.391,276.040 105.254,275.274 106.308 C 274.425 107.475,274.218 107.963,273.735 109.939 C 273.203 112.117,273.074 112.383,272.103 113.287 C 270.475 114.802,270.289 118.141,271.779 119.117 C 272.382 119.513,296.869 119.462,297.823 119.064 C 300.358 118.004,301.212 116.849,301.934 113.500 C 302.169 112.410,302.401 111.848,302.939 111.061 C 303.980 109.539,304.154 109.133,304.585 107.226 C 305.291 104.101,305.228 104.226,307.714 101.011 L 309.012 99.333 330.758 99.333 L 352.503 99.333 353.960 100.110 C 356.277 101.346,356.483 101.645,357.091 104.640 C 357.433 106.324,357.573 106.693,358.234 107.661 C 359.186 109.054,359.447 109.684,359.852 111.567 C 360.397 114.103,360.797 115.115,361.622 116.044 C 362.035 116.509,362.625 117.282,362.932 117.762 C 364.041 119.497,362.555 119.333,377.217 119.333 C 393.870 119.333,393.011 119.478,392.871 116.701 C 392.790 115.104,392.781 115.075,392.151 114.386 C 391.408 113.573,391.160 113.032,390.676 111.162 C 390.269 109.594,390.003 109.021,389.246 108.083 C 388.446 107.091,388.205 106.523,387.822 104.719 C 387.373 102.605,387.112 101.933,386.339 100.917 C 385.448 99.744,385.225 99.246,384.747 97.354 C 384.163 95.044,383.921 94.415,383.272 93.524 C 382.373 92.289,382.032 91.477,381.568 89.468 C 381.133 87.586,380.832 86.927,379.749 85.485 C 379.300 84.887,379.062 84.272,378.658 82.658 C 378.044 80.206,377.816 79.622,377.148 78.788 C 376.412 77.868,375.914 76.667,375.344 74.435 C 374.853 72.514,374.592 71.953,373.424 70.301 C 373.043 69.762,372.785 69.114,372.593 68.218 C 372.064 65.736,371.692 64.734,370.921 63.708 C 370.183 62.726,369.992 62.241,368.932 58.660 C 368.665 57.758,368.273 56.902,367.862 56.326 C 366.885 54.956,366.690 54.491,366.241 52.458 C 365.799 50.462,365.427 49.591,364.627 48.680 C 363.982 47.944,363.740 47.349,363.149 45.040 C 362.668 43.163,362.244 42.189,361.354 40.917 C 360.727 40.021,360.400 39.138,359.982 37.204 C 359.600 35.441,359.256 34.639,358.522 33.796 C 357.818 32.988,357.589 32.452,357.028 30.304 C 356.496 28.271,356.060 27.243,355.388 26.438 C 354.833 25.775,354.566 25.084,353.898 22.586 C 353.335 20.483,353.089 19.948,351.918 18.292 C 351.489 17.685,351.254 17.045,350.907 15.542 C 350.417 13.418,350.079 12.612,349.245 11.583 C 348.948 11.217,348.351 10.204,347.919 9.333 C 347.487 8.462,346.901 7.506,346.617 7.208 L 346.101 6.667 332.676 6.689 C 325.292 6.702,319.063 6.746,318.833 6.787 M61.293 8.087 C 62.186 8.227,63.404 8.448,64.000 8.580 C 65.388 8.885,71.414 9.629,73.583 9.762 C 76.056 9.913,78.237 10.535,79.108 11.338 C 79.887 12.057,81.231 12.543,83.412 12.895 C 84.991 13.150,85.691 13.475,86.548 14.354 C 87.314 15.138,88.493 15.758,89.801 16.063 C 91.107 16.368,91.387 16.539,92.017 17.415 C 92.349 17.877,92.846 18.303,93.319 18.530 C 94.792 19.236,95.737 19.909,96.936 21.108 C 97.600 21.773,98.515 22.504,98.969 22.734 C 99.606 23.057,99.907 23.353,100.293 24.038 C 100.569 24.527,101.284 25.355,101.886 25.884 C 102.579 26.492,103.386 27.458,104.090 28.523 C 104.701 29.446,105.408 30.321,105.661 30.466 C 106.227 30.791,106.867 31.798,107.240 32.949 C 107.584 34.011,107.956 34.501,108.738 34.922 C 109.392 35.274,109.364 35.208,110.104 38.167 C 110.613 40.202,110.891 40.808,111.789 41.833 C 112.682 42.853,112.989 43.842,113.258 46.565 C 113.585 49.876,114.109 52.464,114.897 54.667 L 115.583 56.583 115.583 63.000 L 115.583 69.417 114.946 71.167 C 114.192 73.237,113.630 75.869,113.256 79.083 C 112.912 82.043,112.515 83.431,111.825 84.088 C 111.118 84.760,110.562 85.747,110.325 86.750 C 109.896 88.571,109.297 90.352,109.050 90.546 C 107.984 91.381,107.523 91.984,107.236 92.917 C 106.881 94.071,106.367 94.960,105.983 95.086 C 105.661 95.191,104.500 96.328,104.500 96.537 C 104.500 96.902,102.997 98.848,101.955 99.833 C 101.325 100.429,100.553 101.272,100.240 101.706 C 99.927 102.140,99.351 102.722,98.960 102.999 C 97.642 103.934,96.459 104.912,95.601 105.775 C 95.049 106.332,94.294 106.850,93.456 107.247 C 92.442 107.729,92.056 108.018,91.661 108.591 C 91.219 109.234,91.020 109.363,90.011 109.663 C 88.139 110.221,86.969 110.816,86.067 111.668 C 85.166 112.520,85.133 112.532,82.000 113.266 C 80.019 113.730,79.137 114.081,78.211 114.775 C 77.143 115.576,75.670 115.888,70.458 116.420 C 67.900 116.680,65.926 116.968,61.667 117.702 C 59.616 118.055,59.223 118.061,36.768 118.121 L 13.952 118.182 13.093 117.611 C 12.620 117.297,11.912 116.877,11.520 116.677 C 10.464 116.138,10.300 115.615,10.628 113.833 C 11.026 111.674,11.026 14.326,10.628 12.167 C 10.293 10.346,10.455 9.868,11.613 9.268 C 12.055 9.039,12.754 8.623,13.167 8.343 L 13.917 7.835 36.793 7.834 C 56.459 7.833,59.898 7.869,61.293 8.087 M198.938 8.479 C 199.242 8.835,199.977 9.378,200.572 9.686 C 201.906 10.378,201.898 10.361,202.341 13.415 C 202.816 16.701,203.140 17.710,204.064 18.793 C 204.863 19.729,204.903 19.852,205.502 23.278 C 205.993 26.082,206.290 26.915,207.126 27.846 C 207.905 28.713,208.155 29.543,208.745 33.237 C 209.059 35.198,209.441 36.135,210.316 37.084 C 211.081 37.913,211.058 37.848,211.503 40.500 C 212.077 43.923,212.560 45.402,213.326 46.083 C 213.952 46.639,214.128 47.168,214.663 50.099 C 215.211 53.097,215.798 54.685,216.587 55.306 C 217.146 55.746,217.313 56.261,217.677 58.667 C 218.183 62.001,218.550 63.062,219.579 64.167 C 220.284 64.923,220.458 65.465,220.838 68.083 C 221.275 71.098,222.166 73.500,222.847 73.500 C 223.159 73.500,223.538 74.843,223.929 77.333 C 224.820 83.005,225.931 85.356,228.178 86.322 C 230.005 87.108,231.081 86.029,231.500 82.989 C 231.744 81.217,232.246 79.631,232.691 79.228 C 233.612 78.394,234.168 76.846,234.581 73.965 C 234.935 71.497,235.067 71.124,235.927 70.155 C 236.804 69.168,237.156 68.124,237.655 65.036 C 238.080 62.401,238.171 62.137,238.942 61.283 C 239.790 60.345,240.082 59.562,240.572 56.917 C 241.230 53.361,241.291 53.166,241.989 52.410 C 242.844 51.482,243.257 50.285,243.760 47.282 C 244.261 44.288,244.381 43.928,245.130 43.185 C 245.955 42.365,246.261 41.500,246.833 38.373 C 247.468 34.906,247.379 35.169,248.266 34.130 C 249.041 33.222,249.519 32.015,249.736 30.417 C 250.103 27.721,250.566 25.911,250.995 25.500 C 252.031 24.507,252.524 23.346,252.838 21.167 C 253.240 18.367,253.671 16.880,254.253 16.281 C 255.192 15.313,256.000 13.098,256.000 11.488 C 256.000 10.315,256.770 9.079,257.640 8.856 C 258.073 8.745,258.826 8.470,259.314 8.244 L 260.200 7.833 270.857 7.833 C 283.389 7.833,282.825 7.742,283.648 9.910 L 283.944 10.691 283.484 11.184 C 282.954 11.752,282.673 12.552,282.143 15.000 C 281.790 16.634,281.716 16.800,281.029 17.500 C 280.037 18.511,279.734 19.253,279.347 21.621 C 278.968 23.949,278.716 24.637,277.923 25.515 C 277.040 26.493,276.726 27.259,276.253 29.597 C 276.013 30.781,275.780 31.925,275.735 32.139 C 275.690 32.354,275.314 32.892,274.899 33.335 C 273.991 34.306,273.585 35.311,273.244 37.429 C 272.932 39.364,272.474 40.644,271.899 41.181 C 270.923 42.093,270.385 43.531,270.004 46.250 C 269.755 48.027,269.583 48.432,268.652 49.433 C 267.911 50.230,267.167 51.912,267.167 52.789 C 267.167 54.275,266.267 56.920,265.511 57.656 C 264.574 58.568,264.281 59.329,263.911 61.813 C 263.608 63.846,263.369 64.486,262.590 65.348 C 261.689 66.345,261.375 67.130,260.817 69.782 C 260.221 72.610,260.263 72.506,259.306 73.502 C 258.490 74.351,258.122 75.326,257.845 77.375 C 257.598 79.201,257.121 80.494,256.411 81.262 C 255.534 82.211,255.241 82.878,254.845 84.838 C 254.651 85.798,254.411 86.989,254.312 87.485 C 254.172 88.184,253.968 88.560,253.402 89.166 C 252.495 90.135,252.100 91.017,251.760 92.833 C 251.260 95.497,250.872 96.656,250.322 97.118 C 249.395 97.898,248.861 99.321,248.497 101.982 C 248.298 103.431,247.835 104.570,247.260 105.022 C 246.534 105.593,245.875 107.250,245.414 109.667 C 244.894 112.387,244.787 112.682,244.142 113.159 C 243.794 113.416,243.307 114.216,242.573 115.740 L 241.509 117.949 239.629 118.057 C 234.688 118.342,217.286 118.181,215.650 117.836 C 214.788 117.654,214.024 117.504,213.951 117.503 C 213.768 117.499,212.866 115.449,212.639 114.518 C 212.375 113.438,212.060 112.851,211.331 112.083 C 210.575 111.287,210.243 110.367,209.828 107.917 C 209.444 105.650,209.186 105.018,208.222 103.987 C 207.466 103.179,207.460 103.164,206.918 100.533 C 206.305 97.555,205.913 96.522,205.111 95.765 C 204.417 95.111,204.075 94.194,203.754 92.135 C 203.415 89.957,202.972 88.830,202.169 88.105 C 201.417 87.426,201.181 86.772,200.588 83.729 C 200.157 81.517,199.808 80.678,199.000 79.917 C 198.214 79.175,198.066 78.787,197.671 76.414 C 197.268 74.001,196.834 72.870,195.922 71.861 C 195.152 71.009,194.700 69.837,194.488 68.147 C 194.213 65.953,193.763 64.768,192.862 63.862 L 192.075 63.071 191.527 60.342 C 190.942 57.425,190.622 56.589,189.740 55.667 C 189.040 54.934,188.757 54.247,188.505 52.667 C 188.060 49.887,187.592 48.625,186.687 47.765 C 186.060 47.169,185.618 45.891,185.163 43.359 C 184.780 41.228,184.427 40.409,183.498 39.498 C 182.800 38.814,182.732 38.619,182.176 35.670 C 181.749 33.408,181.425 32.608,180.538 31.637 C 179.801 30.830,179.430 29.850,179.160 28.000 C 178.814 25.631,178.516 24.848,177.612 23.925 C 176.708 23.004,176.631 22.791,175.995 19.457 C 175.572 17.237,175.186 16.317,174.266 15.333 C 172.766 13.730,172.327 10.132,173.427 8.458 L 173.838 7.833 186.111 7.833 L 198.385 7.833 198.938 8.479 M344.452 8.109 L 346.155 8.386 346.725 9.587 C 347.039 10.247,347.398 11.079,347.523 11.435 C 347.648 11.792,348.131 12.472,348.596 12.947 C 349.408 13.776,349.457 13.881,349.817 15.531 C 350.515 18.738,350.764 19.396,351.638 20.363 C 352.615 21.442,352.957 22.271,353.260 24.290 C 353.549 26.215,354.030 27.357,354.844 28.054 C 355.604 28.704,355.740 29.006,356.095 30.833 C 356.588 33.362,356.929 34.230,357.749 35.039 C 358.606 35.883,358.867 36.526,359.351 38.984 C 359.788 41.200,360.212 42.202,360.999 42.882 C 361.823 43.595,361.975 43.924,362.268 45.632 C 362.740 48.393,362.974 48.996,363.936 49.939 C 364.754 50.741,365.667 53.306,365.667 54.805 C 365.667 55.379,366.474 56.999,367.089 57.658 C 367.932 58.562,368.275 59.326,368.503 60.812 C 368.850 63.066,369.281 64.137,370.199 65.032 L 371.042 65.853 371.521 68.155 C 372.102 70.950,372.313 71.481,373.242 72.476 C 374.062 73.354,374.494 74.497,374.921 76.917 C 375.213 78.571,375.718 79.610,376.501 80.167 C 377.194 80.661,377.298 80.911,377.673 82.997 C 378.124 85.497,378.532 86.526,379.355 87.230 C 380.099 87.867,380.270 88.304,380.929 91.244 C 381.413 93.404,381.828 94.334,382.591 94.963 C 383.313 95.558,383.573 96.202,383.918 98.251 C 384.278 100.383,384.697 101.352,385.604 102.150 C 386.324 102.784,386.332 102.804,386.856 105.186 C 387.466 107.963,387.784 108.737,388.699 109.680 C 389.479 110.484,389.747 111.067,390.092 112.709 C 390.231 113.373,390.501 114.239,390.692 114.634 C 391.116 115.511,390.852 116.443,389.874 117.526 L 389.295 118.167 376.997 118.167 L 364.698 118.167 364.178 117.244 C 363.559 116.147,362.301 114.413,361.763 113.914 C 361.307 113.491,360.950 112.404,360.670 110.586 C 360.328 108.364,359.910 107.259,359.096 106.421 C 358.339 105.642,358.395 105.793,357.386 101.842 C 357.031 100.450,355.762 99.095,354.240 98.482 L 353.250 98.083 331.417 98.035 C 319.408 98.009,309.342 98.030,309.047 98.083 C 308.349 98.209,307.638 98.818,306.908 99.918 C 306.585 100.405,306.052 101.008,305.724 101.259 C 304.943 101.854,304.364 103.145,304.059 104.966 C 303.680 107.231,303.220 108.487,302.488 109.250 C 301.578 110.200,301.193 111.212,300.889 113.453 C 300.579 115.741,300.358 116.155,299.215 116.580 C 298.432 116.872,297.413 117.527,297.083 117.951 C 296.800 118.315,272.359 118.345,272.244 117.981 C 271.528 115.723,271.678 114.796,272.869 114.127 C 273.795 113.606,274.264 112.708,274.586 110.833 C 274.931 108.830,275.208 108.175,275.903 107.720 C 276.661 107.225,277.131 106.168,277.500 104.132 C 277.889 101.987,278.182 101.285,279.092 100.309 C 279.997 99.338,280.152 98.961,280.823 96.083 C 281.355 93.798,281.381 93.737,282.076 93.132 C 282.985 92.341,283.401 91.359,283.825 89.003 C 284.188 86.990,284.201 86.962,285.284 85.861 C 286.016 85.117,286.491 83.967,286.741 82.333 C 286.983 80.755,287.513 79.505,288.342 78.557 C 289.250 77.520,289.475 76.943,290.087 74.097 L 290.513 72.111 291.411 71.248 C 292.405 70.293,292.624 69.751,293.075 67.124 C 293.364 65.441,293.640 64.826,294.408 64.152 C 295.101 63.543,295.593 62.407,296.010 60.450 C 296.510 58.102,296.770 57.463,297.517 56.739 C 298.544 55.744,298.763 55.161,299.505 51.434 C 299.674 50.586,299.820 50.333,300.580 49.579 C 301.567 48.600,301.843 47.943,302.241 45.631 C 302.546 43.853,302.845 43.109,303.460 42.592 C 304.190 41.977,304.811 40.669,305.181 38.968 C 305.814 36.054,305.976 35.648,306.841 34.814 C 307.738 33.950,308.136 32.937,308.506 30.583 C 308.753 29.004,308.993 28.475,309.772 27.791 C 310.604 27.061,310.993 26.181,311.344 24.234 C 311.722 22.136,311.986 21.484,312.821 20.577 C 313.770 19.548,313.989 19.028,314.678 16.172 C 315.055 14.613,315.389 13.565,315.525 13.520 C 316.015 13.359,316.798 12.369,317.122 11.500 C 317.683 9.999,318.371 8.642,318.621 8.546 C 320.592 7.789,340.424 7.454,344.452 8.109 M40.583 30.122 C 39.064 30.562,37.671 31.821,37.485 32.923 C 37.309 33.962,37.304 91.371,37.479 92.803 C 37.638 94.100,38.865 95.429,40.362 95.926 C 42.467 96.625,64.934 96.139,67.527 95.339 C 68.558 95.020,70.000 94.157,70.000 93.859 C 70.000 93.716,71.545 93.087,73.140 92.580 C 74.063 92.286,75.082 91.530,75.244 91.018 C 75.296 90.857,75.724 90.549,76.196 90.336 C 76.669 90.122,77.324 89.646,77.653 89.277 C 77.981 88.908,78.757 88.113,79.378 87.511 C 80.224 86.690,80.605 86.167,80.905 85.417 C 81.179 84.730,81.478 84.296,81.860 84.031 C 83.116 83.160,83.274 82.899,84.091 80.334 C 84.436 79.252,84.714 78.728,85.270 78.110 C 86.129 77.154,86.569 75.897,86.739 73.917 C 86.802 73.183,87.111 70.580,87.427 68.132 C 88.101 62.897,88.097 63.038,87.658 59.691 C 86.324 49.516,86.357 49.668,85.226 48.568 C 84.602 47.963,84.436 47.647,84.075 46.388 C 83.416 44.085,82.972 43.301,81.958 42.646 C 81.217 42.168,81.023 41.929,80.668 41.054 C 80.168 39.822,79.855 39.456,78.814 38.890 C 78.322 38.622,77.989 38.314,77.927 38.067 C 77.745 37.341,76.886 36.564,75.847 36.185 C 74.904 35.841,74.583 35.568,73.794 34.440 C 73.428 33.918,72.166 33.318,70.288 32.774 C 69.201 32.460,68.688 32.213,68.290 31.815 C 66.910 30.436,65.145 30.167,56.833 30.072 C 53.304 30.031,48.392 29.972,45.917 29.939 C 42.344 29.893,41.245 29.930,40.583 30.122 M61.111 31.174 C 63.463 31.375,65.072 31.781,66.637 32.568 C 67.249 32.876,68.313 33.295,69.000 33.499 C 70.931 34.072,72.175 34.705,73.050 35.558 C 73.491 35.987,74.366 36.597,74.996 36.914 C 75.725 37.282,76.341 37.742,76.695 38.184 C 77.367 39.025,77.742 39.400,78.692 40.185 C 79.146 40.560,79.627 41.198,79.970 41.882 C 80.339 42.616,80.809 43.224,81.399 43.728 C 82.253 44.457,82.302 44.548,83.070 46.812 C 83.624 48.445,84.052 49.400,84.498 49.998 C 87.295 53.746,87.301 72.366,84.507 76.667 C 83.768 77.804,83.103 79.502,82.749 81.156 C 82.666 81.546,82.292 82.057,81.574 82.765 C 80.995 83.336,80.335 84.170,80.107 84.619 C 79.594 85.633,76.575 88.746,75.333 89.542 C 74.829 89.866,74.229 90.333,74.000 90.581 C 73.407 91.222,72.458 91.727,70.873 92.245 C 70.116 92.493,68.729 93.091,67.790 93.574 C 65.009 95.007,64.721 95.036,52.167 95.163 L 41.583 95.270 40.800 94.863 C 40.369 94.639,39.844 94.273,39.634 94.048 L 39.250 93.640 39.167 64.362 C 39.069 29.914,38.958 32.132,40.815 31.214 C 41.513 30.869,57.173 30.838,61.111 31.174 M329.964 38.758 C 329.048 39.422,328.646 40.352,328.345 42.500 C 328.043 44.654,327.907 45.031,327.234 45.564 C 326.408 46.220,325.880 47.461,325.583 49.447 C 325.239 51.750,324.823 52.861,323.933 53.850 C 323.098 54.780,322.807 55.534,322.401 57.833 C 321.941 60.433,321.851 60.688,321.168 61.325 C 320.287 62.147,319.861 63.093,319.486 65.060 C 318.921 68.019,318.585 68.915,317.754 69.681 C 315.618 71.650,315.399 76.583,317.402 77.619 C 317.962 77.908,343.332 77.952,345.086 77.666 C 347.627 77.253,348.271 75.401,346.550 73.462 C 346.156 73.019,345.833 72.611,345.833 72.557 C 345.833 71.004,344.494 66.962,343.646 65.957 C 342.838 64.998,342.426 63.824,342.088 61.510 C 341.800 59.549,341.399 58.572,340.588 57.860 C 339.804 57.172,339.760 57.054,339.176 54.105 C 338.616 51.279,338.173 50.148,337.352 49.458 C 336.628 48.849,336.398 48.144,336.007 45.342 C 335.373 40.806,334.596 39.385,332.399 38.747 C 331.859 38.590,331.262 38.403,331.073 38.332 C 330.817 38.235,330.535 38.344,329.964 38.758 M331.842 40.144 C 333.440 41.174,334.229 42.552,334.910 45.500 C 335.689 48.877,336.006 49.900,336.507 50.667 C 337.446 52.102,337.993 53.427,338.332 55.083 C 338.798 57.366,339.104 58.226,339.755 59.079 C 340.620 60.212,340.823 60.711,341.339 62.974 C 342.071 66.179,342.131 66.338,343.213 67.945 C 343.776 68.781,343.975 69.336,344.908 72.667 C 345.152 73.537,345.490 74.486,345.660 74.775 L 345.969 75.300 345.526 75.725 C 345.283 75.958,344.708 76.317,344.250 76.522 L 343.417 76.894 330.917 76.914 C 317.143 76.935,318.020 77.002,317.256 75.878 L 316.871 75.312 317.171 73.947 C 317.566 72.156,317.683 71.879,318.410 71.008 C 319.302 69.940,319.573 69.310,320.076 67.140 C 320.523 65.206,321.051 63.935,322.005 62.493 C 322.334 61.995,322.678 61.053,323.008 59.743 C 323.285 58.647,323.586 57.470,323.678 57.127 C 323.770 56.784,324.187 56.004,324.606 55.393 C 325.496 54.093,325.705 53.549,326.259 51.095 C 326.686 49.203,327.292 47.660,327.833 47.083 C 328.433 46.445,328.978 44.945,329.164 43.417 C 329.414 41.376,329.419 41.357,329.990 40.458 C 330.580 39.530,330.824 39.488,331.842 40.144 M132.944 42.566 C 130.379 43.643,130.113 44.040,130.421 46.333 C 130.781 49.012,130.777 110.729,130.417 113.455 C 130.061 116.148,130.827 118.039,132.621 118.893 L 133.583 119.352 145.863 119.301 C 159.957 119.242,158.745 119.394,159.465 117.603 L 159.847 116.653 159.845 80.325 C 159.844 57.738,159.784 43.887,159.685 43.707 C 159.599 43.547,159.255 43.154,158.921 42.833 L 158.315 42.250 146.116 42.204 L 133.917 42.158 132.944 42.566 M158.779 44.068 C 159.104 44.446,159.167 44.647,159.067 44.984 C 158.839 45.753,158.779 111.495,159.005 113.583 C 159.230 115.670,158.857 117.333,158.163 117.333 C 157.991 117.333,157.255 117.521,156.528 117.751 L 155.205 118.169 144.507 118.126 L 133.809 118.083 132.915 116.667 L 132.020 115.250 132.181 113.829 C 132.380 112.074,132.312 45.209,132.111 44.803 C 132.001 44.579,132.152 44.419,132.861 44.010 L 133.750 43.497 146.056 43.540 L 158.362 43.583 158.779 44.068 " stroke="none" fill="#4f4f4f" fill-rule="evenodd"></path></g></svg>